<?xml version="1.0" encoding="UTF-8" standalone="no"?><svg xmlns="http://www.w3.org/2000/svg" xmlns:xlink="http://www.w3.org/1999/xlink" contentStyleType="text/css" height="637px" preserveAspectRatio="none" style="width:502px;height:637px;background:#FFFFFF;" version="1.1" viewBox="0 0 502 637" width="502px" zoomAndPan="magnify"><defs/><g><!--MD5=[9a8fef2338f1983c50e8518d6e32c3a4]
cluster Client AWS--><g id="cluster_Client AWS"><path d="M29.575,17.6359 L29.575,17.6359 L29.5802,17.7291 L32.8803,17.2655 L36.2111,17.3486 L39.532,17.2537 L42.8198,16.5733 L46.1533,16.7034 L46.1533,16.7034 L46.1503,16.669 L49.9678,16.1814 L53.8004,15.8673 L57.6434,15.6738 L61.4503,15.0648 L65.3079,15.0378 L65.3079,15.0378 L65.3357,15.2823 L68.981,15.1819 L72.7076,15.7953 L76.4442,16.4957 L80.123,16.6895 L83.8322,17.1498 L83.8322,17.1498 L83.8434,17.178 L86.5531,16.0509 L89.3139,15.052 L92.0501,13.9913 L94.8332,13.0486 L97.4631,11.7211 L97.6785,11.9273 L99.7106,14.0494 L101.6037,16.0383 L103.7002,18.2221 L105.8062,20.4149 L107.6102,22.3186 L107.6102,22.3186 L107.5766,21.9998 L108.2136,22.6788 L108.7398,22.3081 L109.3503,22.7354 L109.874,22.341 L110.4688,22.6201 L110.4688,22.6201 L110.4385,22.6174 L110.5362,25.6617 L109.9253,28.6445 L109.7325,31.6636 L109.5748,34.6857 L109.1639,37.6859 L109.1639,37.6859 L109.3486,37.6967 L109.3541,40.9557 L109.6751,44.2331 L109.4856,47.4806 L110.0576,50.7728 L110.1233,54.0353 L110.1233,54.0353 L110.3668,54.0416 L110.2443,57.0126 L110.2426,59.9867 L109.6791,62.9464 L109.5275,65.9167 L109.7407,68.8964 L109.7407,68.8964 L109.4684,68.8503 L110.2281,71.9241 L110.6809,74.9461 L111.5788,78.0433 L111.7168,81.0119 L112.3064,84.057 L112.3064,84.057 L112.1546,84.0432 L112.1278,87.1375 L111.4519,90.1727 L111.2376,93.25 L111.4749,96.3684 L110.908,99.4135 L110.908,99.4135 L111.1016,99.4145 L111.2515,102.6866 L110.7991,105.9555 L111.101,109.2283 L111.2386,112.5003 L110.9932,115.7703 L110.9932,115.7703 L110.7879,115.7266 L111.5357,118.5079 L112.2164,121.2749 L113.0291,124.07 L113.3281,126.7558 L113.9141,129.5027 L113.9141,129.5027 L114.1189,129.5213 L113.3833,132.6135 L113.0429,135.7416 L113.2799,138.9224 L112.4539,142.0063 L112.4855,145.1684 L112.4855,145.1684 L112.7108,145.189 L112.2839,148.3826 L111.7807,151.5693 L111.4496,154.7717 L111.5162,158.0104 L111.02,161.1977 L111.02,161.1977 L110.8872,161.1893 L111.4634,164.0679 L111.1367,166.8892 L111.8366,169.7757 L111.9585,172.6255 L111.9246,175.4654 L111.9246,175.4654 L112.0334,175.4673 L111.9976,178.52 L112.3516,181.5794 L112.3534,184.6328 L112.208,187.6837 L112.1848,190.7366 L112.1848,190.7366 L112.3035,190.7484 L111.7978,194.0628 L111.8429,197.4316 L111.2652,200.7389 L110.9436,204.0715 L110.5379,207.3958 L110.5379,207.3958 L110.2676,207.39 L110.4183,210.2074 L110.8947,213.0318 L110.9103,215.8463 L110.7608,218.6572 L110.8404,221.4731 L110.8404,221.4731 L110.7007,221.4416 L111.4005,224.3598 L111.8529,227.2222 L112.9853,230.2378 L113.7812,233.1776 L114.1155,236.0134 L114.2145,236.2254 L111.5451,237.5543 L108.6877,238.4804 L106.0288,239.8317 L103.2384,240.9015 L100.6102,242.3186 L100.6102,242.3186 L100.7331,242.3478 L100.86,242.9462 L101.1352,243.5798 L100.9401,244.1018 L101.1244,244.7138 L101.3256,245.3298 L101.3256,245.3298 L101.3491,245.5255 L97.9902,245.985 L94.5675,245.9133 L91.2189,246.4587 L87.8717,247.015 L84.4983,247.3539 L84.4983,247.3539 L84.4723,247.0837 L80.8854,247.8593 L77.2535,248.1661 L73.6103,248.3565 L69.9927,248.813 L66.3588,249.0991 L66.3588,249.0991 L66.5002,249.3904 L63.9612,250.1088 L61.7462,251.4946 L59.4037,252.6177 L57.0338,253.6846 L54.6745,254.7731 L54.7188,254.8174 L52.8731,252.972 L50.8042,250.9033 L49.0373,249.1367 L47.1812,247.2808 L45.4891,245.5891 L45.4891,245.5891 L45.4958,245.6167 L42.1865,246.4242 L38.8824,247.253 L35.5235,247.8543 L32.2349,248.7479 L28.9302,249.574 L28.8855,249.5448 L27.2808,246.8632 L25.3609,243.9756 L23.1576,240.9027 L21.4471,238.152 L19.6102,235.3186 L19.6102,235.3186 L19.3599,235.2626 L19.8675,235.9381 L20.1386,236.5606 L20.2431,237.1459 L19.9502,237.6424 L20.2713,238.2761 L20.2713,238.2761 L20.4774,238.2826 L20.05,234.8027 L20.5775,231.3528 L20.4643,227.8827 L20.7489,224.4252 L20.8146,220.9608 L20.8146,220.9608 L20.9191,220.9831 L20.448,218.3321 L19.3581,215.5487 L19.3058,212.9873 L18.6048,210.2871 L17.9555,207.5979 L17.9555,207.5979 L18.1134,207.6012 L18.2171,204.1731 L17.8165,200.7347 L17.8212,197.3046 L17.7674,193.8734 L17.6019,190.4398 L17.6019,190.4398 L17.6882,190.4549 L17.0586,187.3419 L16.8271,184.2987 L15.7061,181.0996 L15.6775,178.0919 L14.8871,174.9508 L14.8871,174.9508 L14.61,174.9394 L14.7752,171.8319 L15.1609,168.7336 L15.2837,165.6244 L15.1803,162.5059 L15.5271,159.4059 L15.5271,159.4059 L15.7092,159.4318 L15.1858,156.6802 L15.0684,153.9865 L14.6529,151.2502 L13.7729,148.4478 L13.5809,145.7434 L13.5809,145.7434 L13.4043,145.7327 L13.3335,142.6303 L13.3584,139.5338 L13.1894,136.4254 L12.9542,133.3129 L12.6305,130.1951 L12.6305,130.1951 L12.4787,130.1868 L13.0683,127.3625 L13.2227,124.5144 L13.0759,121.6499 L13.1462,118.7973 L13.4078,115.9551 L13.4078,115.9551 L13.2305,115.9353 L13.6394,113.0157 L14.1212,110.1043 L14.3567,107.1654 L14.5288,104.2194 L15.0397,101.3112 L15.0397,101.3112 L15.2545,101.3393 L15.2644,98.0251 L16.115,94.821 L16.5088,91.5571 L16.9113,88.2943 L17.1744,85.0132 L17.1744,85.0132 L17.4818,85.0274 L16.9169,81.7987 L16.7442,78.5881 L16.9597,75.3954 L16.3159,72.163 L16.4326,68.9658 L16.4326,68.9658 L16.3291,68.9553 L16.7555,66.2742 L17.0067,63.5754 L17.0897,60.8596 L17.5011,58.177 L17.792,55.4822 L17.792,55.4822 L18.1221,55.5044 L18.2855,52.4467 L17.9395,49.3546 L18.4447,46.3199 L18.3879,43.2473 L18.8218,40.2078 L18.8218,40.2078 L18.8107,40.204 L17.9131,37.1939 L16.9345,34.1563 L15.4458,30.9465 L14.8623,28.0424 L13.6616,24.9298 L13.6638,24.9328 L16.1042,22.8094 L18.7163,20.9172 L21.5173,19.2797 L24.0867,17.33 L26.6102,15.3186 L26.6102,15.3186 L26.6057,15.3128 L27.0192,15.5467 L27.9763,16.476 L28.3037,16.5998 L28.8375,16.9875 L29.575,17.6359 " style="stroke:#181818;stroke-width:1.0;fill:none;"/><text fill="#000000" font-family="sans-serif" font-size="14" font-weight="bold" lengthAdjust="spacing" textLength="74.9375" x="26.1415" y="35.2845">Client AWS</text></g><!--MD5=[597d9e468e131f53f39d3eed4362fdcd]
cluster Console.Dot Platform--><g id="cluster_Console.Dot Platform"><path d="M220.3945,294.1713 L220.3945,294.1713 L220.4488,294.2473 L222.4792,292.4571 L224.8277,291.1127 L227.0727,289.6231 L228.9769,287.6562 L231.3528,286.35 L231.3345,286.3207 L233.5384,287.6122 L235.8343,289.0516 L238.1942,290.5937 L240.3336,291.7817 L242.7818,293.4657 L242.7818,293.4657 L242.9508,293.6445 L244.4654,291.4879 L246.4736,289.8533 L248.542,288.2823 L250.26,286.3409 L252.1623,284.5943 L252.1787,284.6198 L254.3279,285.9769 L256.5517,287.4502 L258.7395,288.8674 L260.9959,290.3916 L263.0286,291.567 L263.0286,291.567 L263.2503,291.7665 L265.2024,289.6028 L267.0115,287.3104 L269.0299,285.2064 L271.0581,283.1112 L272.7755,280.7362 L272.6369,280.4472 L275.5335,282.2684 L277.9736,283.138 L280.7608,284.731 L283.1906,285.579 L285.9133,287.0376 L285.9133,287.0376 L285.8978,287.0115 L288.212,286.0599 L290.1639,284.4962 L292.3296,283.2936 L294.5132,282.1215 L296.5674,280.7305 L296.6868,280.8718 L298.4569,282.3283 L300.431,284.0262 L302.0749,285.3336 L304.2115,287.2234 L306.0205,288.726 L306.0205,288.726 L306.0398,288.9689 L309.8771,288.617 L313.7239,288.3858 L317.5261,287.5942 L321.361,287.2134 L325.2249,287.1964 L325.2249,287.1964 L325.1865,286.9229 L329.1775,286.6148 L333.1251,285.9985 L337.1356,285.8292 L341.0388,284.8966 L345.0058,284.4178 L345.0058,284.4178 L344.9233,284.2895 L347.5816,282.8829 L349.8875,280.9281 L352.444,279.3631 L355.2456,278.1796 L357.6107,276.3168 L357.7326,276.4672 L360.1442,278.4574 L362.1765,279.9798 L364.6839,282.0882 L367.0877,284.0689 L369.2504,285.7522 L369.2504,285.7522 L369.2398,285.5425 L373.2084,285.9111 L377.1736,286.2111 L381.1457,286.646 L385.091,286.5564 L389.0513,286.7598 L389.0513,286.7598 L389.1659,286.9305 L391.1548,285.0504 L393.365,283.4997 L395.8984,282.4303 L397.8368,280.4748 L400.2552,279.2342 L400.4067,279.4022 L402.3214,281.1102 L404.1848,282.7613 L406.1638,284.5407 L408.4103,286.6167 L410.2784,288.273 L410.2784,288.273 L410.1986,288.1666 L412.4505,286.9729 L414.1596,285.0554 L416.4859,283.961 L418.4647,282.4031 L420.3499,280.7204 L420.4167,280.8064 L422.3515,282.281 L424.5254,284.0636 L426.4833,285.5679 L428.3509,286.956 L430.2935,288.4406 L430.2935,288.4406 L430.337,288.5516 L432.5489,287.4951 L434.9626,286.9539 L437.1481,285.8298 L439.4274,284.9455 L441.676,283.9825 L441.4734,283.8034 L443.1607,285.6947 L445.0919,287.8017 L446.6778,289.6035 L448.1401,291.2958 L449.7739,293.1399 L449.7739,293.1399 L449.7205,293.0071 L452.7553,291.8366 L455.6955,290.4309 L458.8956,289.6719 L461.9671,288.5928 L464.8622,287.0748 L465.0239,287.2438 L467.4253,289.5467 L469.5194,291.5284 L471.9378,293.8491 L474.1415,295.9454 L476.6102,298.3186 L476.6102,298.3186 L476.6752,298.4269 L477.2027,298.7343 L477.8086,299.1725 L478.1657,299.1961 L478.7235,299.5541 L479.2902,299.927 L479.2902,299.927 L479.4492,300.0434 L481.2075,302.4165 L482.5341,304.4734 L484.3623,306.8976 L486.1992,309.3282 L487.8595,311.6295 L487.6483,311.4589 L486.1591,313.985 L484.3035,316.2152 L482.3568,318.3719 L480.6182,320.6966 L478.7464,322.9137 L478.7464,322.9137 L479.0092,323.1029 L480.1213,324.8983 L481.8355,327.1272 L483.3127,329.1855 L484.7392,331.2072 L486.1852,333.243 L486.2363,333.2793 L484.752,335.3477 L483.0104,337.2333 L481.617,339.3663 L480.1206,341.4261 L478.8135,343.6204 L478.8135,343.6204 L478.833,343.641 L480.8037,345.5097 L482.7894,347.3943 L484.6142,349.1092 L486.6457,351.0421 L488.6296,352.9248 L488.583,352.8986 L487.5244,355.407 L486.1376,357.7305 L484.456,359.8876 L483.2872,362.334 L481.9868,364.7062 L481.9868,364.7062 L481.7723,364.5655 L483.6443,367.1402 L485.3136,369.5819 L486.8402,371.93 L488.0263,374.0548 L489.7385,376.5246 L489.9168,376.6282 L488.0328,378.8028 L486.9749,381.4575 L485.3627,383.79 L484.0946,386.3225 L482.6372,388.7449 L482.6372,388.7449 L482.7165,388.8165 L484.6167,390.9052 L486.0473,392.5699 L488.2654,394.9456 L489.9911,396.8767 L491.7561,398.8433 L491.8858,398.9334 L490.4763,401.2678 L488.6527,403.3144 L487.162,405.5922 L485.6232,407.8367 L483.9926,410.0174 L483.9926,410.0174 L484.0802,410.0209 L483.8411,413.8752 L484.0059,417.7453 L483.2683,421.5801 L483.639,425.4583 L483.2368,429.3063 L483.2368,429.3063 L483.0175,429.1365 L484.724,431.3251 L486.605,433.6488 L488.278,435.8114 L489.772,437.8355 L491.6223,440.1354 L491.778,440.2331 L490.2078,442.4817 L488.9849,444.9481 L487.507,447.2546 L485.6316,449.3118 L484.3449,451.7382 L484.3449,451.7382 L484.2067,451.6279 L485.9189,453.7295 L487.7061,455.891 L489.3415,457.9312 L490.925,459.93 L492.4393,461.8735 L492.3165,461.7839 L491.1383,464.1356 L489.6079,466.2302 L487.8339,468.1471 L486.2356,470.1922 L484.792,472.3502 L484.792,472.3502 L484.6273,472.2814 L485.7154,474.7363 L486.8712,477.2194 L487.7982,479.6069 L488.6664,481.9699 L489.8492,484.4643 L490.0073,484.6123 L487.9064,486.2421 L486.4246,488.4511 L484.6064,490.3454 L482.7946,492.2457 L480.8802,494.05 L480.8802,494.05 L481.1488,494.2001 L482.0173,496.2018 L483.2285,498.3951 L484.7789,500.7779 L485.5786,502.7411 L487.0426,505.0757 L486.9579,505.0154 L485.6189,507.1632 L484.1365,509.2088 L482.5164,511.1564 L481.1651,513.2954 L479.7152,515.3641 L479.7152,515.3641 L479.986,515.5544 L481.5062,517.7439 L482.6086,519.64 L484.4092,522.0265 L485.7489,524.0893 L487.4909,526.4346 L487.4811,526.4284 L486.1561,528.7917 L484.7588,531.1093 L482.9062,533.1394 L481.8615,535.6798 L480.266,537.8723 L480.266,537.8723 L480.2689,537.8746 L481.6869,539.6868 L483.3278,541.6814 L485.2141,543.8767 L486.7996,545.8259 L488.3255,547.7264 L488.3192,547.7228 L486.8133,549.7964 L486.0759,552.304 L484.4483,554.3088 L483.1125,556.4784 L482.0647,558.8107 L482.0647,558.8107 L482.0379,558.7974 L483.586,561.5172 L484.8829,564.1121 L485.9386,566.5873 L487.151,569.1403 L488.4978,571.7601 L488.5511,571.8135 L486.5091,573.8611 L484.244,575.6852 L482.4861,578.0177 L480.4843,580.1058 L478.2617,581.9724 L478.2617,581.9724 L478.1714,581.9402 L479.263,585.2148 L480.9061,588.6863 L481.8135,591.8951 L482.9856,595.1985 L484.1667,598.505 L484.241,598.6152 L481.095,600.2298 L478.4758,602.6258 L475.429,604.3875 L472.6877,606.6024 L469.6102,608.3186 L469.6102,608.3186 L469.5712,608.231 L470.296,608.7573 L470.7534,608.6836 L471.4899,609.2359 L472.1259,609.563 L472.6691,609.6817 L472.6691,609.6817 L472.5632,609.5819 L470.6942,612.0114 L468.2997,613.9455 L466.2401,616.1954 L464.5208,618.7661 L462.2077,620.7769 L462.3595,621.0405 L459.6905,619.4745 L456.8412,617.5952 L454.363,616.3606 L451.5299,614.5093 L448.9913,613.1697 L448.9913,613.1697 L449.0049,613.1917 L446.8823,614.4854 L444.7121,615.7031 L442.8101,617.3504 L440.6608,618.6015 L438.4478,619.7505 L438.3572,619.6404 L436.678,618.3507 L434.6365,616.6212 L432.527,614.8091 L430.7073,613.3488 L428.8547,611.8484 L428.8547,611.8484 L428.7959,611.6225 L425.2277,612.7273 L421.5615,613.4552 L417.9532,614.4062 L414.4168,615.6333 L410.7975,616.5417 L410.7975,616.5417 L410.7645,616.4995 L408.4184,618.3644 L406.0322,620.178 L403.7541,622.1301 L401.1936,623.7202 L398.9823,625.758 L399.0243,625.8154 L396.3682,623.7224 L394.2216,622.3263 L391.8803,620.6638 L389.4426,618.8695 L386.8865,616.9132 L386.8865,616.9132 L386.8988,617.0733 L383.2969,617.2755 L379.6977,617.5142 L376.0761,617.4608 L372.517,618.2194 L368.9055,618.2986 L368.9055,618.2986 L368.9936,618.4157 L366.6681,619.8959 L364.511,621.6001 L362.2604,623.1798 L360.1778,624.983 L357.9232,626.5574 L358.0902,626.8096 L355.545,624.9089 L353.4555,623.6964 L351.0272,621.9722 L348.6647,620.3474 L346.4664,618.9705 L346.4664,618.9705 L346.3627,618.8089 L344.1406,620.1216 L342.0185,621.5902 L339.9619,623.161 L337.8477,624.6419 L335.6111,625.932 L335.7525,626.1456 L333.5637,624.6639 L331.1356,622.8208 L329.3115,621.8899 L327.1284,620.4169 L324.8586,618.8129 L324.8586,618.8129 L324.895,619.0504 L321.3048,618.4918 L317.6363,617.4227 L314.0744,617.0488 L310.5241,616.7505 L306.9138,616.0614 L306.9138,616.0614 L306.8113,615.8735 L304.3549,617.4052 L301.8541,618.8554 L299.3723,620.3404 L296.7757,621.615 L294.229,622.9811 L294.4622,623.2159 L292.3074,621.0743 L290.2083,618.9889 L287.9086,616.7014 L286.1334,614.942 L283.9769,612.7987 L283.9769,612.7987 L283.9453,612.5453 L280.2792,613.396 L276.5484,613.7271 L272.8499,614.3182 L269.1142,614.6101 L265.4045,615.1111 L265.4045,615.1111 L265.3592,615.0367 L262.9775,616.2041 L260.8435,617.7781 L258.4744,618.9661 L256.3248,620.5144 L254.126,621.982 L254.2585,622.1245 L252.2404,620.2356 L250.1209,618.2376 L248.3978,616.6658 L246.409,614.8085 L244.455,612.9884 L244.455,612.9884 L244.5742,613.1983 L242.3904,614.4495 L240.0983,615.5102 L237.8499,616.6477 L235.6535,617.8768 L233.512,619.2025 L233.5119,619.1996 L231.6687,619.432 L229.7927,618.7678 L227.9469,618.9266 L226.0997,619.0501 L224.2412,618.864 L224.4546,619.1094 L222.878,617.6963 L221.3334,616.32 L219.751,614.9002 L218.4176,613.7668 L217.1162,612.6702 L217.0245,612.6338 L216.3554,610.4556 L215.4664,608.1901 L214.434,605.8677 L213.4565,603.5671 L212.6102,601.3186 L212.6102,601.3186 L212.4896,601.0224 L213.436,601.6991 L214.2915,602.1527 L215.1371,602.5819 L215.8433,602.6687 L216.6309,602.9557 L216.6309,602.9557 L216.6595,602.9768 L214.9359,600.7177 L213.4868,598.6622 L211.6138,596.2923 L210.3494,594.3737 L208.5487,592.0574 L208.4343,591.9841 L209.8134,589.6449 L211.5711,587.5482 L213.1147,585.3143 L214.4227,582.9295 L215.8643,580.6304 L215.8643,580.6304 L215.8255,580.5931 L214.0115,578.6936 L212.0495,576.6521 L210.1235,574.6451 L208.2752,572.7127 L206.3471,570.7038 L206.2138,570.6406 L207.6804,568.2919 L208.9769,565.8627 L209.7355,563.1788 L210.9602,560.7155 L212.2311,558.2742 L212.2311,558.2742 L212.0574,558.1594 L210.8771,556.1502 L209.3126,553.8871 L208.1099,551.8632 L206.3522,549.4725 L205.0217,547.364 L204.902,547.2586 L206.8494,545.4886 L208.4043,543.3729 L210.297,541.5547 L212.03,539.5959 L213.6655,537.5511 L213.6655,537.5511 L213.8208,537.6669 L211.942,535.3431 L210.5954,533.4161 L209.2039,531.4557 L207.2691,529.09 L205.9118,527.1551 L206.1029,527.2723 L207.1396,524.8653 L208.6839,522.7697 L210.2282,520.6741 L211.0985,518.165 L212.6937,516.1006 L212.6937,516.1006 L212.9569,516.2842 L211.1451,513.9016 L209.5348,511.6596 L208.4001,509.7493 L206.3628,507.2095 L205.0935,505.2053 L205.2983,505.3798 L206.681,503.0674 L208.6381,501.2445 L210.5102,499.3492 L211.9363,497.0737 L213.7098,495.0944 L213.7098,495.0944 L213.5567,494.9821 L212.0928,492.9738 L210.6782,491.0016 L209.3665,489.1049 L207.5782,486.8588 L206.2941,484.9823 L206.4788,485.1148 L207.9601,483.0909 L208.9649,480.7251 L210.629,478.8324 L211.9756,476.7118 L213.6048,474.7941 L213.6048,474.7941 L213.6607,474.8463 L211.4449,472.5183 L209.7906,470.7161 L207.9337,468.7243 L205.8724,466.5409 L203.9591,464.4962 L204.0193,464.5305 L205.3645,462.0491 L206.8544,459.6502 L208.436,457.3038 L209.8128,454.8403 L210.9589,452.245 L210.9589,452.245 L211.0627,452.3051 L209.6998,450.0469 L208.497,447.8814 L207.1843,445.6523 L205.9218,443.4522 L204.5699,441.2004 L204.7123,441.3458 L206.1663,439.1831 L208.3516,437.7676 L210.1982,436.006 L211.6516,433.8427 L213.6881,432.2751 L213.6881,432.2751 L213.9027,432.4557 L211.9148,430.1529 L210.0046,427.9154 L208.0118,425.6084 L206.2993,423.5374 L204.5925,421.4711 L204.8223,421.6262 L205.9563,418.9839 L207.9533,416.9239 L209.2481,414.3901 L211.0286,412.1841 L212.4922,409.7642 L212.4922,409.7642 L212.3102,409.6427 L210.95,407.5258 L209.8319,405.5705 L208.2179,403.2841 L206.5976,400.9936 L205.2145,398.8613 L205.291,398.9256 L207.088,397.0111 L208.6564,394.9046 L210.4845,393.0163 L212.1303,390.9748 L213.6466,388.8244 L213.6466,388.8244 L213.711,388.87 L211.8345,386.294 L210.014,383.7577 L208.219,381.2392 L206.6876,378.9072 L204.8219,376.3388 L204.8338,376.3492 L207.0381,374.2142 L208.7273,371.63 L210.8007,369.3808 L212.6231,366.9129 L214.8687,364.8138 L214.8687,364.8138 L214.9927,364.9019 L213.0737,362.4523 L211.4973,360.246 L210.0889,358.1591 L208.5146,355.9543 L207.0834,353.8512 L207.1807,353.9101 L208.323,351.4581 L210.1463,349.4184 L211.1855,346.9039 L212.7278,344.6941 L214.0468,342.349 L214.0468,342.349 L214.2698,342.3524 L213.9787,338.3925 L214.2145,334.4405 L214.2766,330.486 L214.5191,326.5341 L214.3456,322.576 L214.3456,322.576 L214.0547,322.4315 L212.5332,319.0331 L210.8885,315.5737 L209.3713,312.1775 L207.1679,308.4405 L205.636,305.037 L205.6757,305.0774 L208.5069,302.3708 L211.4135,299.741 L213.788,296.5691 L216.6577,293.9017 L219.6102,291.3186 L219.6102,291.3186 L219.3449,291.2457 L219.9406,291.9368 L219.7698,292.4173 L220.1425,293.0472 L219.9626,293.5251 L220.3945,294.1713 " style="stroke:#181818;stroke-width:1.0;fill:none;"/><text fill="#000000" font-family="sans-serif" font-size="14" font-weight="bold" lengthAdjust="spacing" textLength="152.3125" x="268.454" y="311.2845">Console.Dot Platform</text></g><!--MD5=[608386805723c47a122753e92f6ea2e4]
cluster hmsidm--><g id="cluster_hmsidm"><path d="M245.2129,338.1088 L245.2129,338.1088 L245.2172,338.2021 L247.7697,337.8067 L250.3475,337.9582 L252.917,337.9317 L255.4595,337.3193 L258.0394,337.5179 L258.0394,337.5179 L258.0374,337.4834 L261.1021,337.1525 L264.1768,336.9954 L267.2584,336.9592 L270.3161,336.5065 L273.4073,336.6371 L273.4073,336.6371 L273.4256,336.8825 L276.5628,336.1202 L279.7536,336.0743 L282.9509,336.1158 L286.1101,335.6487 L289.2894,335.4491 L289.2894,335.4491 L289.2962,335.4787 L292.2329,334.7601 L295.2006,334.1761 L298.1533,333.5272 L301.1344,333.0022 L304.023,332.0732 L304.023,332.0732 L304.0426,332.3708 L306.8969,332.1861 L309.7384,331.8095 L312.5986,331.7138 L315.4596,331.6313 L318.293,331.1315 L318.293,331.1315 L318.2853,330.811 L321.2258,331.3624 L324.1409,330.8587 L327.0754,331.1571 L329.9899,330.6294 L332.9207,330.7788 L332.9207,330.7788 L332.9174,330.7485 L335.4858,330.8242 L337.9753,330.1929 L340.5114,329.9787 L343.0514,329.7996 L345.5633,329.3678 L345.5633,329.3678 L345.5755,329.5524 L348.4024,329.5551 L351.2502,329.8733 L354.064,329.6811 L356.9286,330.2501 L359.7594,330.3131 L359.7594,330.3131 L359.7708,330.5564 L362.7881,330.6519 L365.8111,330.8682 L368.8077,330.5231 L371.8237,330.5895 L374.8567,331.0206 L374.8567,331.0206 L374.8051,330.7492 L378.0386,331.6012 L381.2139,332.1475 L384.4736,333.1373 L387.5892,333.3699 L390.7905,334.0525 L390.7905,334.0525 L390.783,333.9003 L393.3194,334.2779 L395.8238,334.0046 L398.351,334.1942 L400.9004,334.8368 L403.4102,334.6728 L403.4102,334.6728 L403.4311,334.8653 L406.4083,335.3197 L409.3204,335.1754 L412.314,335.781 L415.2899,336.2233 L418.2243,336.2848 L418.2243,336.2848 L418.2014,336.0761 L421.31,336.5812 L424.4112,337.018 L427.527,337.589 L430.5856,337.638 L433.6762,337.9786 L433.6762,337.9786 L433.7415,338.1736 L437.3849,339.0132 L441.1543,340.2292 L445.1077,341.9949 L448.7223,342.7485 L452.6102,344.3186 L452.6102,344.3186 L452.7774,344.4711 L453.0331,344.7697 L453.2323,345.0167 L453.5591,345.3802 L454.1809,346.0128 L454.3853,346.2645 L454.3853,346.2645 L454.2528,346.252 L454.9589,349.5846 L454.7642,352.832 L455.5937,356.1763 L455.8465,359.466 L455.944,362.741 L455.944,362.741 L456.0483,362.7721 L456.7943,365.5328 L457.914,368.405 L458.6961,371.1765 L459.3372,373.906 L460.0954,376.6704 L460.0954,376.6704 L460.2137,376.6849 L460.4653,380.1504 L461.2662,383.6833 L461.4459,387.1401 L461.8811,390.6281 L462.2323,394.1059 L462.2323,394.1059 L461.9644,394.0694 L462.4921,397.2957 L463.3424,400.5659 L463.7362,403.7739 L463.9662,406.9596 L464.4233,410.1762 L464.4233,410.1762 L464.284,410.1431 L463.5763,413.3189 L462.6219,416.436 L462.3457,419.7143 L461.7338,422.9129 L460.6617,426.002 L460.6617,426.002 L460.8956,426.0058 L460.9205,429.1184 L460.501,432.2239 L460.5505,435.3369 L460.2895,438.4449 L460.4118,441.5591 L460.4118,441.5591 L460.5348,441.5873 L459.8129,444.6643 L459.2395,447.7754 L458.1949,450.7785 L457.5303,453.8686 L456.8827,456.9627 L456.8827,456.9627 L457.0789,456.982 L457.418,459.8681 L457.2246,462.7016 L457.6498,465.5962 L458.0859,468.4918 L458.3041,471.3659 L458.1737,471.1278 L455.8408,472.8942 L453.2817,474.2476 L450.6663,475.4983 L448.1794,476.9835 L445.6102,478.3186 L445.6102,478.3186 L445.9275,478.3836 L445.5034,478.434 L445.8062,478.6335 L445.8228,478.7742 L445.7782,478.9024 L445.7572,479.0354 L445.7572,479.0354 L445.7603,479.098 L442.5888,479.2461 L439.4012,479.079 L436.2353,479.3384 L433.063,479.4718 L429.9023,479.837 L429.9023,479.837 L429.9072,479.8649 L426.8004,480.418 L423.6973,480.9926 L420.554,481.3368 L417.4624,481.9771 L414.3588,482.5491 L414.3588,482.5491 L414.3552,482.4958 L410.6925,482.5536 L407.0041,482.2357 L403.2927,481.58 L399.6214,481.5117 L395.9398,481.2927 L395.9398,481.2927 L395.8907,481.0409 L392.9574,482.0047 L389.9777,482.7304 L386.9653,483.2887 L383.8751,483.4472 L380.9052,484.2234 L380.9052,484.2234 L380.9111,484.4295 L377.1937,483.9982 L373.5033,484.522 L369.7948,484.405 L366.0976,484.6857 L362.3942,484.7476 L362.3942,484.7476 L362.4038,484.854 L359.3761,484.6819 L356.2914,483.8796 L353.3022,484.1341 L350.2533,483.7279 L347.2092,483.3743 L347.2092,483.3743 L347.2194,483.5319 L343.6394,483.9388 L340.0269,483.8423 L336.4405,484.1504 L332.8503,484.4001 L329.253,484.5382 L329.253,484.5382 L329.2677,484.6246 L325.9706,483.9776 L322.7416,483.729 L319.3605,482.5903 L316.1661,482.5448 L312.8416,481.7369 L312.8416,481.7369 L312.8366,481.4596 L309.345,481.4347 L305.8574,481.6305 L302.365,481.5631 L298.8686,481.2694 L295.3803,481.4263 L295.3803,481.4263 L295.3876,481.61 L292.2111,481.6013 L289.051,482.0022 L285.8788,482.1024 L282.688,481.7337 L279.5248,482.0594 L279.5248,482.0594 L279.4985,481.8845 L275.984,481.4712 L272.4837,481.1528 L268.9545,480.6423 L265.4154,480.0661 L261.8632,479.4024 L261.8632,479.4024 L261.8163,479.2578 L258.8437,480.6796 L255.7365,481.6868 L252.5363,482.4072 L249.4031,483.3343 L246.3291,484.4437 L246.1857,484.3375 L244.3087,481.7619 L242.4906,479.23 L240.4734,476.5505 L238.4048,473.8331 L236.6102,471.3186 L236.6102,471.3186 L236.7687,471.4663 L236.8018,471.5449 L237.455,472.2016 L237.7713,472.5442 L238.094,472.8928 L238.3139,473.1454 L238.3139,473.1454 L238.6185,473.1891 L237.7351,469.846 L237.2404,466.5586 L237.1303,463.3264 L236.1688,459.9721 L235.9608,456.7258 L235.9608,456.7258 L235.8588,456.7058 L235.4173,453.7016 L234.803,450.6635 L234.0228,447.593 L233.5665,444.5858 L232.9913,441.5554 L232.9913,441.5554 L233.3165,441.617 L232.6023,438.0568 L231.3864,434.4017 L231.0089,430.9052 L230.0779,427.304 L229.63,423.7942 L229.63,423.7942 L229.6187,423.7915 L228.9766,420.6357 L228.2515,417.4597 L227.0033,414.1558 L226.6833,411.0788 L225.7305,407.8471 L225.7305,407.8471 L225.7342,407.8476 L225.9325,404.6322 L226.4161,401.4569 L227.2136,398.3256 L227.6263,395.1403 L227.9628,391.9443 L227.9628,391.9443 L227.9559,391.9421 L228.6249,388.8847 L230.1348,386.0955 L230.6707,382.9956 L231.5258,379.9976 L232.696,377.1 L232.696,377.1 L232.6665,377.0954 L233.4329,374.0815 L233.9222,371.0243 L234.1453,367.9255 L234.5414,364.8537 L235.0857,361.8051 L235.0857,361.8051 L235.1581,361.8264 L234.266,358.77 L233.0709,355.6245 L232.5648,352.6817 L231.7274,349.6414 L230.59,346.5129 L230.5346,346.4346 L233.084,344.5182 L235.971,343.0801 L238.4075,341.004 L241.0061,339.1574 L243.6102,337.3186 L243.6102,337.3186 L243.669,337.4378 L243.8039,337.2193 L244.3555,337.8459 L244.5688,337.7866 L245.0238,338.2174 L245.2129,338.1088 " style="stroke:#181818;stroke-width:1.0;fill:none;"/><text fill="#000000" font-family="sans-serif" font-size="14" font-weight="bold" lengthAdjust="spacing" textLength="54.625" x="317.2977" y="357.2845">hmsidm</text></g><!--MD5=[0f533a43c0b2f7679aae6c105029b1e0]
cluster Postgresql--><g id="cluster_Postgresql"><path d="M346.6102,385.3186 L346.6102,385.3186 L346.6696,385.3908 L347.8995,384.0201 L349.4773,383.0725 L350.9418,381.9871 L352.0339,380.4487 L353.6415,379.5374 L353.635,379.5034 L356.6995,378.7575 L359.7969,378.1825 L362.917,377.7264 L365.9586,376.8606 L369.1102,376.5686 L369.1276,376.8141 L372.1842,376.0704 L375.2915,376.0434 L378.405,376.1039 L381.4826,375.6556 L384.579,375.4749 L384.5797,375.5052 L385.9849,375.4294 L387.3933,375.4917 L388.8001,375.4874 L390.2098,375.6101 L391.6102,375.3186 L391.6102,375.3186 L391.6169,375.6168 L393.0232,375.6517 L394.4253,375.4942 L395.8336,375.6183 L397.2422,375.7556 L398.6415,375.4749 L398.6189,375.1551 L401.7565,375.9944 L404.8197,375.7809 L407.9395,376.3678 L411.001,376.1304 L414.1102,376.5686 L414.1045,376.5387 L417.2661,377.4861 L420.2937,377.7348 L423.4003,378.3958 L426.5136,379.0914 L429.579,379.5374 L429.6965,379.6802 L430.9841,380.6923 L432.4726,381.9485 L433.6362,382.8096 L435.2843,384.26 L436.6102,385.3186 L438.0721,385.3186 L437.7957,394.89 L438.245,404.4615 L435.322,414.0329 L434.8711,423.6043 L434.9532,433.1758 L436.4532,442.7472 L436.6102,452.3186 L436.6102,452.3186 L436.5548,452.2511 L435.3963,453.7088 L433.7484,454.5711 L432.2947,455.6696 L431.0497,457.022 L429.579,458.0999 L429.5231,457.8088 L426.4418,458.467 L423.4459,459.5706 L420.3342,460.0713 L417.2655,460.7954 L414.1102,461.0686 L414.1002,460.9259 L411.0265,461.4289 L407.9413,461.7679 L404.8142,461.5154 L401.7322,461.9011 L398.6415,462.1624 L398.6427,462.2183 L397.2417,462.4832 L395.829,462.223 L394.4273,462.4616 L393.011,462.0413 L391.6102,462.3186 L391.6102,462.3186 L391.6036,462.0177 L390.209,462.5111 L388.7907,461.9375 L387.3965,462.451 L385.9873,462.2854 L384.579,462.1624 L384.5706,462.0436 L381.4742,461.7868 L378.4059,461.9282 L375.2884,461.3734 L372.2225,461.5498 L369.1102,461.0686 L369.0639,460.8273 L366.0682,460.7444 L362.9633,460.0925 L359.8495,459.3943 L356.7392,458.7142 L353.6415,458.0999 L353.8466,458.3493 L352.4084,457.1542 L350.8768,455.8455 L349.4984,454.7232 L347.9797,453.4301 L346.6102,452.3186 L348.5208,452.3186 L347.0232,442.7472 L347.0704,433.1758 L344.988,423.6043 L345.5296,414.0329 L348.0256,404.4615 L347.7563,394.89 L346.6102,385.3186 " style="stroke:#181818;stroke-width:1.0;fill:none;"/><path d="M346.6102,385.3186 L346.6102,385.3186 L346.6696,385.3908 L347.8995,386.3326 L349.4773,387.6975 L350.9418,388.9246 L352.0339,389.6987 L353.6415,391.0999 L353.635,391.0659 L356.6995,391.5075 L359.7969,392.12 L362.917,392.8514 L365.9586,393.1731 L369.1102,394.0686 L369.1276,394.3141 L372.1842,394.0079 L375.2915,394.4184 L378.405,394.9164 L381.4826,394.9056 L384.579,395.1624 L384.5797,395.1927 L385.9849,395.1794 L387.3933,395.3042 L388.8001,395.3624 L390.2098,395.5476 L391.6102,395.3186 L391.6102,395.3186 L391.6169,395.6168 L393.0232,395.5892 L394.4253,395.3692 L395.8336,395.4308 L397.2422,395.5056 L398.6415,395.1624 L398.6189,394.8426 L401.7565,395.2444 L404.8197,394.5934 L407.9395,394.7428 L411.001,394.0679 L414.1102,394.0686 L414.1045,394.0387 L417.2661,393.7986 L420.2937,392.8598 L423.4003,392.3333 L426.5136,391.8414 L429.579,391.0999 L429.6965,391.2427 L430.9841,389.9423 L432.4726,388.886 L433.6362,387.4346 L435.2843,386.5725 L436.6102,385.3186 " fill="none" style="stroke:#181818;stroke-width:1.0;"/><text fill="#000000" font-family="sans-serif" font-size="14" font-weight="bold" lengthAdjust="spacing" textLength="74.375" x="354.4227" y="412.2845">Postgresql</text></g><!--MD5=[8890788e37b11dd3053f547e2b5ce265]
entity domain--><g id="elem_domain"><polygon fill="#F1F1F1" points="69.6544,204.2645,68.4818,205.8668,67.0948,208.2137,65.1111,209.7953,63.0265,210.6601,61.3644,210.7352,59.2282,209.6535,57.2125,208.9469,55.6826,207.5122,54.8801,205.8697,54.4042,204.5619,53.9379,202.8537,53.1811,201.3837,53.7627,199.9484,54.2722,198.3762,56.1843,197.1328,57.5295,195.5194,59.1945,194.9837,61.174,194.5223,63.7124,194.7964,65.1027,195.4521,66.7191,195.7493,68.6846,197.763,69.3697,199.8888,69.6674,201.3392,69.3302,203.7294" style="stroke:#181818;stroke-width:0.5;"/><text fill="#000000" font-family="sans-serif" font-size="14" lengthAdjust="spacing" textLength="48" x="37.6102" y="234.2845">Freeipa</text></g><!--MD5=[da9746410650acf9fab14ea35e32d13b]
entity host--><g id="elem_host"><polygon fill="#F1F1F1" points="71.6544,79.2645,70.4818,80.8668,69.0948,83.2137,67.1111,84.7953,65.0265,85.6601,63.3644,85.7352,61.2282,84.6535,59.2125,83.9469,57.6826,82.5122,56.8801,80.8697,56.4042,79.5619,55.9379,77.8537,55.1811,76.3837,55.7627,74.9484,56.2722,73.3762,58.1843,72.1328,59.5295,70.5194,61.1945,69.9837,63.174,69.5223,65.7124,69.7964,67.1027,70.4521,68.7191,70.7493,70.6846,72.763,71.3697,74.8888,71.6674,76.3392,71.3302,78.7294" style="stroke:#181818;stroke-width:0.5;"/><text fill="#000000" font-family="sans-serif" font-size="14" lengthAdjust="spacing" textLength="57" x="35.1102" y="109.2845">Host VM</text></g><!--MD5=[89728e2d0d5261bb83c8a6a44c161d56]
entity service_hbi--><g id="elem_service_hbi"><polygon fill="#F1F1F1" points="257.6102,551.3186,257.6102,551.5288,267.6102,550.9043,277.6102,551.5119,287.6102,551.7183,297.6102,550.6052,307.6102,551.2409,317.6102,551.3186,317.5558,551.1873,317.9149,551.347,318.3087,551.5905,318.5827,551.545,319.0951,552.0749,319.378,552.0508,319.1839,551.9704,319.4636,552.3792,319.8039,552.813,319.7909,553.1006,319.9848,553.4738,320.1102,553.8186,320.0996,553.8186,320.1698,562.6322,320.19,571.4458,320.3055,580.2594,320.3339,589.0729,320.1102,597.8865,320.3194,597.9732,320.0422,598.2726,319.9601,598.6528,319.8872,599.0368,319.3024,599.2087,319.378,599.6543,319.4646,599.8632,318.9866,599.7094,318.739,600.1116,318.2542,599.9412,317.9551,600.219,317.6102,600.3865,317.6102,601.1281,307.6102,600.3378,297.6102,600.4918,287.6102,600.7252,277.6102,600.8028,267.6102,600.3826,257.6102,600.3865,257.6469,600.475,257.1837,600.0638,256.9394,600.1812,256.6195,600.116,256.2527,599.9376,255.8425,599.6543,256.0313,599.7325,255.5473,599.2391,255.3487,598.864,255.2118,598.5144,255.2386,598.2326,255.1102,597.8865,255.0447,597.8865,255.3374,589.0729,255.052,580.2594,254.9959,571.4458,255.1863,562.6322,255.1102,553.8186,254.9049,553.7335,255.0968,553.3988,255.603,553.1943,255.6838,552.8135,255.9222,552.4981,255.8425,552.0508,255.8014,551.9517,256.2367,552.0027,256.6249,551.9398,256.8429,551.466,257.2445,551.4355,257.6102,551.3186" style="stroke:#181818;stroke-width:0.5;"/><polygon fill="#F1F1F1" points="300.1102,556.3186,300.1102,556.3887,303.1102,556.1805,306.1102,556.383,309.1102,556.4518,312.1102,556.0808,315.1102,556.3186,315.0843,556.3186,314.9681,558.3186,314.9824,560.3186,315.0875,562.3186,314.8798,564.3186,315.1102,566.3186,315.1102,566.5032,312.1102,566.1085,309.1102,566.2527,306.1102,566.4626,303.1102,566.29,300.1102,566.3186,300.133,566.3186,300.0996,564.3186,300.1698,562.3186,300.19,560.3186,300.3055,558.3186,300.1102,556.3186" style="stroke:#181818;stroke-width:0.5;"/><polygon fill="#F1F1F1" points="298.1102,558.3186,298.1102,558.3887,298.9102,558.1805,299.7102,558.383,300.5102,558.4518,301.3102,558.0808,302.1102,558.3186,302.0843,558.3186,301.9681,558.7186,301.9824,559.1186,302.0875,559.5186,301.8798,559.9186,302.1102,560.3186,302.1102,560.5032,301.3102,560.1085,300.5102,560.2527,299.7102,560.4626,298.9102,560.29,298.1102,560.3186,298.133,560.3186,298.0996,559.9186,298.1698,559.5186,298.19,559.1186,298.3055,558.7186,298.1102,558.3186" style="stroke:#181818;stroke-width:0.5;"/><polygon fill="#F1F1F1" points="298.1102,562.3186,298.1102,562.3887,298.9102,562.1805,299.7102,562.383,300.5102,562.4518,301.3102,562.0808,302.1102,562.3186,302.0843,562.3186,301.9681,562.7186,301.9824,563.1186,302.0875,563.5186,301.8798,563.9186,302.1102,564.3186,302.1102,564.5032,301.3102,564.1085,300.5102,564.2527,299.7102,564.4626,298.9102,564.29,298.1102,564.3186,298.133,564.3186,298.0996,563.9186,298.1698,563.5186,298.19,563.1186,298.3055,562.7186,298.1102,562.3186" style="stroke:#181818;stroke-width:0.5;"/><text fill="#000000" font-family="sans-serif" font-size="14" lengthAdjust="spacing" textLength="25" x="270.1102" y="586.2845">HBI</text></g><!--MD5=[2d7f3d7930cfe627951e8fae949f7663]
entity service_hmsidm--><g id="elem_service_hmsidm"><polygon fill="#F1F1F1" points="247.1102,412.8186,247.1102,413.0288,257.2352,412.4043,267.3602,413.0119,277.4852,413.2183,287.6102,412.1052,297.7352,412.7409,307.8602,412.3921,317.9852,412.4351,328.1102,412.8186,328.1015,412.7976,328.3756,412.7521,328.888,413.282,329.0905,413.0638,329.4992,413.3435,329.878,413.5508,330.011,413.6059,329.998,413.8935,330.1919,414.2667,330.3075,414.6074,330.5188,414.9878,330.6102,415.3186,330.69,415.3186,330.8055,424.1322,330.8339,432.9458,330.8367,441.7594,330.6951,450.5729,330.6102,459.3865,330.753,459.4457,330.6801,459.8297,330.0953,460.0016,330.3799,460.5337,329.9331,460.7629,329.878,461.1543,329.9461,461.3187,329.4613,461.1483,329.1622,461.4261,328.9119,461.822,328.4576,461.7251,328.1102,461.8865,328.1102,461.9918,317.9852,462.2252,307.8602,462.3028,297.7352,461.8826,287.6102,462.1737,277.4852,461.3141,267.3602,462.1709,257.2352,462.4347,247.1102,461.8865,247.1669,462.0234,246.8349,461.9289,246.3415,461.4449,245.9664,461.2463,245.6168,461.1094,245.3425,461.1543,245.3243,461.1468,245.1355,460.7757,245.2594,460.5341,244.8493,460.0713,244.651,459.6963,244.6102,459.3865,244.6863,459.3865,244.388,450.5729,244.4372,441.7594,244.8266,432.9458,244.7555,424.1322,244.6102,415.3186,244.8364,415.4123,244.6576,414.924,245.0014,414.6522,245.2314,414.3333,245.0505,413.8441,245.3425,413.5508,245.3302,413.5213,245.7121,413.4432,246.1327,413.4587,246.4026,413.1102,246.8157,413.1075,247.1102,412.8186" style="stroke:#181818;stroke-width:0.5;"/><polygon fill="#F1F1F1" points="310.6102,417.8186,310.6102,417.8887,313.6102,417.6805,316.6102,417.883,319.6102,417.9518,322.6102,417.5808,325.6102,417.8186,325.5843,417.8186,325.4681,419.8186,325.4824,421.8186,325.5875,423.8186,325.3798,425.8186,325.6102,427.8186,325.6102,428.0032,322.6102,427.6085,319.6102,427.7527,316.6102,427.9626,313.6102,427.79,310.6102,427.8186,310.633,427.8186,310.5996,425.8186,310.6698,423.8186,310.69,421.8186,310.8055,419.8186,310.6102,417.8186" style="stroke:#181818;stroke-width:0.5;"/><polygon fill="#F1F1F1" points="308.6102,419.8186,308.6102,419.8887,309.4102,419.6805,310.2102,419.883,311.0102,419.9518,311.8102,419.5808,312.6102,419.8186,312.5843,419.8186,312.4681,420.2186,312.4824,420.6186,312.5875,421.0186,312.3798,421.4186,312.6102,421.8186,312.6102,422.0032,311.8102,421.6085,311.0102,421.7527,310.2102,421.9626,309.4102,421.79,308.6102,421.8186,308.633,421.8186,308.5996,421.4186,308.6698,421.0186,308.69,420.6186,308.8055,420.2186,308.6102,419.8186" style="stroke:#181818;stroke-width:0.5;"/><polygon fill="#F1F1F1" points="308.6102,423.8186,308.6102,423.8887,309.4102,423.6805,310.2102,423.883,311.0102,423.9518,311.8102,423.5808,312.6102,423.8186,312.5843,423.8186,312.4681,424.2186,312.4824,424.6186,312.5875,425.0186,312.3798,425.4186,312.6102,425.8186,312.6102,426.0032,311.8102,425.6085,311.0102,425.7527,310.2102,425.9626,309.4102,425.79,308.6102,425.8186,308.633,425.8186,308.5996,425.4186,308.6698,425.0186,308.69,424.6186,308.8055,424.2186,308.6102,423.8186" style="stroke:#181818;stroke-width:0.5;"/><text fill="#000000" font-family="sans-serif" font-size="14" lengthAdjust="spacing" textLength="46" x="259.6102" y="447.7845">Service</text></g><!--MD5=[f50ff5e4cd64f259303fc83dba1819fc]
entity database--><g id="elem_database"><polygon fill="#F1F1F1" points="382.6544,439.2645,381.4818,440.8668,380.0948,443.2137,378.1111,444.7953,376.0265,445.6601,374.3644,445.7352,372.2282,444.6535,370.2125,443.9469,368.6826,442.5122,367.8801,440.8697,367.4042,439.5619,366.9379,437.8537,366.1811,436.3837,366.7627,434.9484,367.2722,433.3762,369.1843,432.1328,370.5295,430.5194,372.1945,429.9837,374.174,429.5223,376.7124,429.7964,378.1027,430.4521,379.7191,430.7493,381.6846,432.763,382.3697,434.8888,382.6674,436.3392,382.3302,438.7294" style="stroke:#181818;stroke-width:0.5;"/><text fill="#000000" font-family="sans-serif" font-size="14" lengthAdjust="spacing" textLength="33" x="358.1102" y="469.2845">Data</text></g><!--MD5=[4dd5cfdbfacc03eb11db5fe62cdfafba]
entity http_requests--><g id="elem_http_requests"><polygon fill="#F1F1F1" points="111.6544,439.2645,110.4818,440.8668,109.0948,443.2137,107.1111,444.7953,105.0265,445.6601,103.3644,445.7352,101.2282,444.6535,99.2125,443.9469,97.6826,442.5122,96.8801,440.8697,96.4042,439.5619,95.9379,437.8537,95.1811,436.3837,95.7627,434.9484,96.2722,433.3762,98.1843,432.1328,99.5295,430.5194,101.1945,429.9837,103.174,429.5223,105.7124,429.7964,107.1027,430.4521,108.7191,430.7493,110.6846,432.763,111.3697,434.8888,111.6674,436.3392,111.3302,438.7294" style="stroke:#181818;stroke-width:0.5;"/><text fill="#000000" font-family="sans-serif" font-size="14" lengthAdjust="spacing" textLength="65" x="71.1102" y="469.2845">Public API</text></g><!--MD5=[875a613e4697df01191de7c4af4b21b4]
link host to domain--><g id="link_host_domain"><path d="M63.4802,86.3886 L63.7604,86.3932 L62.7629,96.5166 L63.4079,106.6668 L63.5181,116.8083 L61.8692,126.9211 L62.5516,137.0719 L61.9217,147.2014 L61.814,157.3393 L62.0694,167.4831 L61.0735,177.6066 L61.8302,187.7586 " fill="none" style="stroke:#181818;stroke-width:1.0;"/><polygon fill="#181818" points="61.7402,193.0586,61.8038,193.0882,62.4458,191.2143,63.4601,189.5137,64.3532,187.7567,64.8476,185.8142,65.8939,184.1285,65.8759,184.1099,64.9815,184.8124,64.1779,185.6089,63.4373,186.4707,62.4794,187.1074,61.8259,188.0593,61.9587,188.1876,60.8887,187.0998,60.2062,186.3863,59.571,185.7186,58.6607,184.7851,57.8951,183.9914,57.916,184.0002,58.6543,185.8007,59.4879,187.6415,60.2756,189.4628,61.1509,191.3214,61.7402,193.0586" style="stroke:#181818;stroke-width:1.0;"/></g><!--MD5=[98b573c3529443dba844d07da6ade6f6]
link host to http_requests--><g id="link_host_http_requests"><path d="M69.4402,86.4186 L69.5183,86.47 L71.2491,89.2978 L73.4374,92.4268 L75.4767,95.4577 L77.0262,98.1661 L79.2537,101.321 L79.2241,101.3031 L80.2494,103.1406 L81.4238,105.0682 L82.7017,107.0583 L83.6226,108.8328 L85.0436,110.9093 L85.2584,111.0294 L85.9934,112.9093 L87.3556,115.1397 L88.7942,117.4128 L89.7876,119.4372 L91.0152,121.5924 L91.0423,121.6061 L92.1721,123.8919 L93.4251,126.2403 L94.6187,128.5585 L95.9257,130.9341 L96.8631,133.1224 L97.1354,133.2441 L98.2225,135.6714 L99.1339,138.0204 L100.3024,140.4841 L101.483,142.9533 L102.2818,145.2519 L101.9817,145.1393 L103.501,147.8541 L104.0321,150.1981 L105.3144,152.824 L105.8232,155.1596 L106.966,157.7332 L106.9367,157.7247 L108.0114,160.3419 L108.4029,162.7613 L109.1975,165.2974 L110.026,167.8434 L110.6102,170.3186 L110.7913,170.3567 L111.3629,173.9017 L112.2438,177.5117 L112.6243,181.0164 L113.7513,184.6783 L114.3819,188.2356 L114.6226,188.2733 L115.151,191.9328 L115.799,195.611 L115.8916,199.2023 L116.3913,202.8573 L117.2516,206.5688 L116.977,206.5386 L117.6347,210.2856 L117.983,213.9987 L118.78,217.7611 L118.8109,221.4392 L119.2972,225.1675 L119.1451,225.1569 L119.6584,228.9172 L119.5214,232.6324 L119.8469,236.3797 L120.6247,240.1584 L120.597,243.8811 L120.7905,243.8877 L121.0496,247.6278 L120.7068,251.3475 L121.1179,255.0927 L121.3648,258.8324 L121.2289,262.5591 L121.019,262.5587 L121.1948,266.2574 L121.3018,269.956 L121.544,273.6549 L121.2609,277.3526 L121.2712,281.051 L121.4767,281.0563 L120.9313,284.6756 L120.7826,288.3052 L121.2133,291.9497 L120.5772,295.5667 L120.8019,299.206 L121.0278,299.2175 L120.713,302.7442 L120.3218,306.2669 L120.1031,309.7985 L120.2832,313.3505 L119.899,316.8736 L119.7663,316.8638 L119.9097,320.2989 L119.1507,323.6674 L119.4177,327.1116 L119.107,330.5132 L118.6407,333.9033 L118.7491,333.9135 L118.3545,337.1535 L118.348,340.4301 L117.9908,343.6736 L117.4871,346.9032 L117.1051,350.1444 L117.2235,350.1578 L116.7006,353.1983 L116.7275,356.301 L116.1325,359.3333 L115.7934,362.3946 L115.3702,365.4464 L115.1021,365.4113 L114.8204,368.2655 L114.8617,371.1618 L114.446,373.9984 L113.8664,376.8137 L113.5141,379.6586 L113.3725,379.6379 L113.0381,382.2389 L112.4528,384.8032 L112.5571,387.4685 L112.3201,390.0838 L111.615,392.6305 L111.846,392.6677 L111.5472,394.9958 L110.8094,397.2533 L110.5349,399.5853 L109.9537,401.868 L109.751,404.2116 L109.8752,404.2339 L109.1968,407.9084 L108.6683,411.6099 L107.6641,415.2257 L107.0436,418.9106 L106.4402,422.5986 " fill="none" style="stroke:#181818;stroke-width:1.0;"/><polygon fill="#181818" points="105.4002,427.8786,105.4576,427.9188,106.4174,426.1861,107.7135,424.6891,108.9001,423.1153,109.7265,421.2892,111.0515,419.8124,111.037,419.7909,110.0335,420.3263,109.103,420.9699,108.2232,421.6889,107.1686,422.1484,106.3588,422.9714,106.5119,423.0744,105.5527,421.9155,105.0405,421.0575,104.5829,420.2362,103.8079,419.2013,103.1998,418.2787,103.222,418.2838,103.6295,420.1963,104.138,422.132,104.5978,424.0565,105.1505,426.0022,105.4002,427.8786" style="stroke:#181818;stroke-width:1.0;"/></g><!--MD5=[c570c79e19e2f47484332ab018a871aa]
link domain to http_requests--><g id="link_domain_http_requests"><path d="M63.0602,211.3386 L63.336,211.3883 L64.3318,221.3111 L66.9443,231.5253 L69.0304,241.6446 L69.3851,251.4518 L72.0345,261.6726 L73.392,271.6606 L75.2637,281.7412 L77.4927,291.8863 L78.4902,301.8094 L81.9391,312.1743 L82.2008,321.9648 L84.5836,332.1375 L87.2251,342.357 L88.361,352.305 L90.3784,362.4119 L92.0621,372.4587 L94.1535,382.5789 L96.0483,392.6637 L98.3183,402.8162 L100.2456,412.9069 L101.1802,422.8186 " fill="none" style="stroke:#181818;stroke-width:1.0;"/><polygon fill="#181818" points="102.0802,427.8486,102.1483,427.8653,102.4151,425.9026,103.0808,424.0377,103.6167,422.141,103.7253,420.1395,104.4253,418.283,104.404,418.2682,103.6627,419.1307,103.0286,420.0678,102.469,421.0567,101.6525,421.867,101.1959,422.9274,101.3012,423.079,100.147,422.1091,99.3004,421.5815,98.4914,421.108,97.464,420.3204,96.5514,419.698,96.5702,419.7108,97.6484,421.3222,98.8122,422.9917,99.9347,424.6331,101.136,426.3281,102.0802,427.8486" style="stroke:#181818;stroke-width:1.0;"/></g><!--MD5=[158a0a0bc4063f617bcf4428ce87a3e7]
link http_requests to service_hmsidm--><g id="link_http_requests_service_hmsidm"><path d="M112.7302,437.3186 L112.7302,437.5989 L122.8664,436.7662 L133.0026,437.5763 L143.1387,437.8515 L153.2749,436.3674 L163.411,437.215 L173.5472,436.7499 L183.6833,436.8073 L193.8195,437.2277 L203.9556,436.3968 L214.0918,438.0568 L224.2279,436.4782 L234.3641,437.0549 L244.5002,437.3186 " fill="none" style="stroke:#181818;stroke-width:1.0;"/><text fill="#000000" font-family="sans-serif" font-size="13" lengthAdjust="spacing" textLength="95" x="131.1102" y="430.2156">/api/hmsidm/v*</text></g><!--MD5=[79c3e98a97e7e2b2a59d47364946a2f3]
link service_hmsidm to service_hbi--><g id="link_service_hmsidm_service_hbi"><path d="M287.6102,462.0986 L287.8905,462.0986 L287.0578,472.6074 L287.868,483.1161 L288.1431,493.6249 L286.659,504.1336 L287.5066,514.6424 L287.0416,525.1511 L287.0989,535.6599 L287.6102,546.1686 " fill="none" style="stroke:#181818;stroke-width:1.0;"/><polygon fill="#181818" points="287.6102,551.3186,287.6743,551.3471,288.284,549.4625,289.2691,547.7448,290.132,545.9727,290.5929,544.022,291.6102,542.3186,291.5919,542.3003,290.7097,543.0181,289.9199,543.8282,289.1942,544.7025,288.2473,545.3557,287.6102,546.3186,287.7407,546.4491,286.6617,545.37,285.9636,544.672,285.3121,544.0204,284.39,543.0984,283.6102,542.3186,283.631,542.3278,284.4005,544.1143,285.2646,545.9428,286.0831,547.751,286.9886,549.5979,287.6102,551.3186" style="stroke:#181818;stroke-width:1.0;"/><text fill="#000000" font-family="sans-serif" font-size="13" lengthAdjust="spacing" textLength="117" x="288.6102" y="517.2156">/api/inventory/v1/*</text></g><!--MD5=[b0a79081758cc20608d786a3ae6aef98]
link service_hmsidm to database--><g id="link_service_hmsidm_database"><path d="M330.7702,437.3186 L330.7702,437.412 L337.6882,437.1345 L344.6062,437.4045 L351.5242,437.4962 L358.4422,437.0015 L365.3602,437.3186 " fill="none" style="stroke:#181818;stroke-width:1.0;"/></g><!--MD5=[d27763287a28991dff7078c2648b8b33]
@startuml architecture

skinparam handwritten true

() "Public API" as http_requests

cloud "Client AWS" {
    () "Freeipa" as domain
    () "Host VM" as host
    host - -> domain
    host - -> http_requests
    domain - -> http_requests
}

cloud "Console.Dot Platform" {
    [HBI] as service_hbi
    cloud "hmsidm" {
        ' () "Kafka Consumers" as kafka_consumer
        ' () "Kafka Producers" as kafka_producer
        ' () "Http Clients" as http_clients

        database "Postgresql" {
            () "Data" as database
        }

        [Service] as service_hmsidm

        http_requests - service_hmsidm: /api/hmsidm/v*
        service_hmsidm - -> service_hbi: /api/inventory/v1/*
        ' service - http_clients: third party services
        ' service - kafka_producer: produce event topics
        ' kafka_consumer - service: kafka handler
        service_hmsidm - database
    }
}

@enduml

@startuml architecture

skinparam handwritten true

() "Public API" as http_requests

cloud "Client AWS" {
    () "Freeipa" as domain
    () "Host VM" as host
    host - -> domain
    host - -> http_requests
    domain - -> http_requests
}

cloud "Console.Dot Platform" {
    [HBI] as service_hbi
    cloud "hmsidm" {

        database "Postgresql" {
            () "Data" as database
        }

        [Service] as service_hmsidm

        http_requests - service_hmsidm: /api/hmsidm/v*
        service_hmsidm - -> service_hbi: /api/inventory/v1/*
        service_hmsidm - database
    }
}

@enduml

PlantUML version 1.2022.5(Sat Apr 30 12:55:52 CEST 2022)
(LGPL source distribution)
Java Runtime: OpenJDK Runtime Environment
JVM: OpenJDK 64-Bit Server VM
Default Encoding: UTF-8
Language: en
Country: null
--></g></svg>