<?xml version="1.0" encoding="UTF-8" standalone="no"?><svg xmlns="http://www.w3.org/2000/svg" xmlns:xlink="http://www.w3.org/1999/xlink" contentStyleType="text/css" height="615px" preserveAspectRatio="none" style="width:509px;height:615px;background:#FFFFFF;" version="1.1" viewBox="0 0 509 615" width="509px" zoomAndPan="magnify"><defs/><g><!--MD5=[9a8fef2338f1983c50e8518d6e32c3a4]
cluster Client AWS--><g id="cluster_Client AWS"><path d="M27.1011,22.9594 L27.1011,22.9594 L27.1197,23.051 L30.834,22.0108 L34.6576,21.5072 L38.4456,20.8288 L42.1165,19.5759 L45.9496,19.1183 L45.9496,19.1183 L45.9423,19.0845 L49.4132,18.1788 L52.9209,17.4432 L56.4539,16.8259 L59.8992,15.8009 L63.4675,15.3471 L63.4675,15.3471 L63.5873,15.562 L65.5369,13.8736 L67.8362,12.8128 L70.1781,11.8286 L72.2719,10.3988 L74.4961,9.2034 L74.5173,9.2251 L76.2973,10.9525 L78.1735,12.7789 L80.0033,14.5576 L81.9216,16.4274 L83.5513,18 L83.5513,18 L83.6293,18.2879 L86.6893,17.4622 L89.6991,16.4508 L92.7825,15.7112 L95.8693,14.9844 L98.8468,13.854 L98.5679,13.696 L100.6713,16.7603 L101.8565,19.3045 L103.7398,22.2441 L104.9042,24.7765 L106.6578,27.6427 L106.6578,27.6427 L106.6577,27.6122 L107.1664,27.9749 L107.6715,27.6262 L108.1788,27.6973 L108.6862,27.8036 L109.1924,27.6557 L109.1924,27.6557 L109.3772,27.6638 L109.0314,31.2807 L109.0013,34.9116 L108.4603,38.52 L108.6815,42.1618 L108.3959,45.7814 L108.3959,45.7814 L108.6386,45.8032 L108.8655,48.844 L109.2129,51.8956 L109.0005,54.8971 L109.1985,57.9353 L109.76,61.0061 L109.76,61.0061 L109.4841,60.994 L109.8788,64.3048 L109.9626,67.6019 L110.4974,70.9189 L110.2622,74.202 L110.4847,77.5053 L110.4847,77.5053 L110.3339,77.4832 L111.1295,81.2486 L111.2801,84.9198 L111.8894,88.658 L112.9474,92.4617 L113.2064,96.1487 L113.2064,96.1487 L113.3999,96.1529 L113.4614,99.4443 L112.9208,102.7225 L113.1343,106.0171 L113.1835,109.3081 L112.8498,112.5909 L112.8498,112.5909 L112.6414,112.5652 L113.2085,115.8415 L113.7073,119.1094 L114.3402,122.3938 L114.4518,125.614 L114.8546,128.87 L114.8546,128.87 L115.0571,128.9052 L114.06,132.013 L113.4538,135.1886 L113.4188,138.4633 L112.3322,141.5556 L112.094,144.7951 L112.094,144.7951 L112.3195,144.8136 L112.4337,147.8177 L112.4716,150.8154 L112.6816,153.8273 L113.2896,156.872 L113.3345,159.8704 L113.3345,159.8704 L113.2017,159.8627 L113.4024,163.2588 L112.6998,166.6029 L113.0242,170.0062 L112.7704,173.3761 L112.3608,176.737 L112.3608,176.737 L112.4693,176.7459 L112.1032,180.1392 L112.1256,183.5642 L111.797,186.9606 L111.3216,190.3449 L110.9681,193.7391 L110.9681,193.7391 L111.0848,193.7637 L110.2536,196.8551 L109.9639,200.0605 L109.0618,203.137 L108.4115,206.2666 L107.6786,209.3787 L107.6786,209.3787 L107.4182,209.3057 L108.3128,212.2115 L109.521,215.2051 L110.2854,218.0744 L110.8908,220.8991 L111.7168,223.7856 L111.6321,223.6702 L109.2474,225.4786 L106.7127,227.0827 L104.5905,229.2484 L102.2642,231.1362 L99.6578,232.6427 L99.6578,232.6427 L99.8399,232.7896 L100.349,233.3956 L100.5121,233.7226 L101.0404,234.3441 L101.3269,234.7706 L101.9118,235.4378 L101.9118,235.4378 L101.9304,235.5627 L98.3466,236.0794 L94.7852,236.7468 L91.1527,236.9362 L87.5775,237.5111 L84.005,238.1033 L84.005,238.1033 L84.0322,238.2985 L80.2575,238.8807 L76.4088,238.9331 L72.646,239.601 L68.8847,240.2797 L65.0932,240.7417 L65.0932,240.7417 L65.0491,240.4738 L61.2273,240.2559 L57.3291,239.5733 L53.4118,238.7752 L49.538,238.241 L45.6364,237.5378 L45.6364,237.5378 L45.7024,237.8549 L42.0597,238.141 L38.5683,239.1534 L35.0174,239.88 L31.4537,240.5454 L27.8949,241.2343 L27.9488,241.2662 L26.0909,238.1417 L23.9614,234.8562 L22.1994,231.7885 L20.3288,228.6565 L18.6578,225.6427 L18.6578,225.6427 L18.6806,225.6596 L18.9692,226.0435 L19.2755,226.4404 L19.3938,226.698 L19.7535,227.1347 L20.0576,227.53 L20.0576,227.53 L20.0043,227.5264 L20.0907,224.2482 L19.8014,220.9446 L19.1742,217.6182 L19.1345,214.3314 L18.9442,211.0345 L18.9442,211.0345 L18.688,211.0215 L18.8923,207.4921 L18.8546,203.9505 L18.6463,200.4002 L18.0314,196.8293 L18.0449,193.2902 L18.0449,193.2902 L18.2499,193.3127 L17.3541,189.9488 L17.4081,186.6891 L16.8249,183.3594 L16.6372,180.0732 L16.2319,176.7631 L16.2319,176.7631 L16.338,176.7755 L16.0816,173.719 L15.1966,170.589 L15.3656,167.5822 L14.8756,164.4984 L14.4382,161.4207 L14.4382,161.4207 L14.5958,161.4308 L14.9832,158.1007 L14.8672,154.7385 L15.1558,151.402 L15.3861,148.0619 L15.5047,144.7146 L15.5047,144.7146 L15.5922,144.7183 L15.3584,141.2674 L15.5284,137.8336 L14.7961,134.3615 L15.1719,130.9364 L14.775,127.4786 L14.775,127.4786 L14.4978,127.4683 L14.6435,124.5478 L15.0097,121.6356 L15.113,118.7136 L14.99,115.7832 L15.3174,112.8695 L15.3174,112.8695 L15.5013,112.8715 L15.4048,109.3049 L15.7184,105.7428 L15.731,102.1773 L15.2744,98.6068 L15.5127,95.0438 L15.5127,95.0438 L15.3382,95.0149 L15.9695,91.9401 L16.6955,88.881 L17.2297,85.7902 L17.6985,82.6884 L18.08,79.5722 L18.08,79.5722 L17.9281,79.5655 L18.5166,76.0634 L18.6695,72.5422 L18.5212,69.0079 L18.5902,65.483 L18.8504,61.9665 L18.8504,61.9665 L18.6726,61.9521 L18.5016,58.8252 L18.4038,55.7041 L18.0589,52.5631 L17.6503,49.4169 L17.5817,46.2983 L17.5817,46.2983 L17.7866,46.3684 L16.3072,43.072 L15.6299,40.0501 L14.5168,36.879 L13.412,33.7108 L12.1741,30.4971 L12.3557,30.7456 L14.8064,28.438 L17.4888,26.4475 L20.4004,24.7706 L22.8045,22.3994 L25.6578,20.6427 L25.6578,20.6427 L25.5695,20.5877 L25.99,21.1332 L26.261,21.5855 L26.3885,21.9485 L26.7962,22.486 L27.1011,22.9594 " style="stroke:#181818;stroke-width:1.0;fill:none;"/><text fill="#000000" font-family="sans-serif" font-size="14" font-weight="bold" lengthAdjust="spacing" textLength="86" x="19.6578" y="38.6378">Client AWS</text></g><!--MD5=[597d9e468e131f53f39d3eed4362fdcd]
cluster Console.Dot Platform--><g id="cluster_Console.Dot Platform"><path d="M216.1289,284.6275 L216.1289,284.6275 L216.1818,284.7045 L218.1361,283.0244 L220.4006,281.7955 L222.564,280.4197 L224.3953,278.5607 L226.6864,277.3705 L226.6666,277.3422 L228.6793,278.6812 L230.7915,280.1629 L232.9731,281.7439 L234.9159,282.9828 L237.1931,284.7009 L237.1931,284.7009 L237.3658,284.8762 L238.9279,282.5986 L240.9943,280.8329 L243.1222,279.1295 L244.8921,277.0629 L246.8503,275.1874 L246.8619,275.2154 L249.352,276.2064 L251.8947,277.325 L254.4121,278.382 L256.9778,279.5565 L259.3858,280.3479 L259.3858,280.3479 L259.5322,280.6078 L261.9751,279.2366 L264.3236,277.6978 L266.8103,276.4043 L269.3035,275.1224 L271.5915,273.4761 L271.364,273.2503 L273.7789,275.6769 L275.4448,277.3599 L277.6802,279.6083 L279.3291,281.2745 L281.4586,283.4178 L281.4586,283.4178 L281.4388,283.3948 L283.9341,281.7188 L285.965,279.5042 L288.27,277.6074 L290.5979,275.7373 L292.7599,273.6747 L292.8469,273.838 L295.3929,275.0764 L298.0875,276.5938 L300.5417,277.6598 L303.3546,279.3991 L305.9289,280.6907 L305.9289,280.6907 L306.0717,280.8881 L308.2019,279.29 L310.4029,277.79 L312.2745,275.8346 L314.3875,274.213 L316.7146,272.8871 L316.5517,272.6641 L318.8494,274.4362 L320.9635,275.957 L323.3439,277.8423 L325.2698,279.1052 L327.4658,280.7381 L327.4658,280.7381 L327.4494,280.5865 L331.4502,280.4096 L335.381,279.5847 L339.3616,279.2205 L343.3909,279.3073 L347.3335,278.5912 L347.3335,278.5912 L347.4324,278.7577 L350.1352,277.307 L352.5305,275.3385 L355.311,274.0186 L358.0076,272.5574 L360.5086,270.7669 L360.3723,270.6073 L362.8115,272.7247 L365.206,274.7899 L367.6883,276.9578 L369.8294,278.7263 L372.1612,280.7179 L372.1612,280.7179 L372.2725,280.8907 L374.2827,279.0591 L376.5079,277.561 L379.0468,276.5504 L381.008,274.6424 L383.4353,273.4584 L383.5874,273.6258 L385.4818,275.33 L387.3248,276.9775 L389.2839,278.7528 L391.5115,280.8237 L393.3592,282.4764 L393.3592,282.4764 L393.267,282.3805 L395.5829,280.7023 L397.2716,278.372 L399.6735,276.7831 L401.6739,274.7768 L403.566,272.658 L403.6255,272.7491 L405.9495,274.2236 L408.4866,276.0246 L410.8311,277.5307 L413.0953,278.9134 L415.4262,280.3985 L415.4262,280.3985 L415.4804,280.5047 L417.559,279.2445 L419.8893,278.4772 L421.935,277.1525 L424.0978,276.0571 L426.2221,274.8864 L426.0642,274.6668 L428.0854,276.1552 L430.2967,277.908 L432.239,279.2867 L434.0849,280.5311 L436.0646,281.9617 L436.0646,281.9617 L435.9918,281.8384 L438.526,280.396 L440.9314,278.7353 L443.691,277.6748 L446.2753,276.3173 L448.6191,274.5523 L448.7606,274.7386 L451.1275,276.562 L453.2255,278.0315 L455.6073,279.8745 L457.8012,281.4703 L460.227,283.3712 L460.227,283.3712 L460.2769,283.4871 L463.277,282.1764 L466.3373,281.0056 L469.2064,279.3908 L472.2298,278.1341 L475.26,276.8934 L475.4015,277.0306 L477.7206,279.4188 L479.6556,281.4345 L482.0368,283.883 L484.4259,286.339 L486.6578,288.6427 L486.6578,288.6427 L486.391,288.5925 L486.8421,288.831 L486.8304,288.9825 L486.7037,289.1124 L486.8398,289.2917 L486.8076,289.4393 L486.8076,289.4393 L487.0335,289.6714 L488.8629,291.4344 L491.2099,293.7291 L493.3532,295.8145 L495.4529,297.8551 L497.5693,299.9129 L497.6237,299.944 L496.121,302.5445 L494.3444,304.9882 L492.9384,307.6441 L491.4229,310.2372 L490.1088,312.9456 L490.1088,312.9456 L490.1371,312.9463 L490.2289,316.6588 L490.3426,320.3718 L490.2224,324.0797 L490.4027,327.7941 L490.5136,331.5071 L490.5136,331.5071 L490.4679,331.4795 L492.1496,333.9917 L493.5086,336.3096 L494.5776,338.4529 L496.151,340.8999 L497.5951,343.2691 L497.4074,343.0942 L495.817,345.3654 L494.0493,347.4714 L492.1568,349.461 L489.9663,351.173 L488.2361,353.314 L488.2361,353.314 L488.4421,353.3238 L488.0888,357.1527 L488.69,361.0269 L488.6507,364.8707 L489.0091,368.7334 L489.1486,372.5857 L489.1486,372.5857 L489.2545,372.5994 L489.867,376.538 L489.8519,380.395 L490.889,384.3888 L491.2683,388.2971 L491.7,392.2122 L491.7,392.2122 L491.8343,392.2953 L493.359,394.6092 L494.4549,396.6575 L495.8955,398.9192 L497.2863,401.1501 L498.582,403.3222 L498.6454,403.3828 L496.7742,405.2099 L495.195,407.3165 L492.9635,408.7986 L491.5331,411.0477 L489.544,412.7619 L489.544,412.7619 L489.3312,412.5842 L491.3028,414.9349 L493.4439,417.4272 L495.383,419.7507 L497.1483,421.9292 L499.2595,424.3965 L499.4047,424.5094 L497.4369,426.8194 L495.7928,429.3812 L493.9111,431.7582 L491.659,433.8471 L489.9554,436.3626 L489.9554,436.3626 L489.7786,436.3576 L489.7945,440.0236 L489.9063,443.6923 L489.8239,447.3555 L489.6751,451.0168 L489.4378,454.6756 L489.4378,454.6756 L489.3119,454.5905 L491.1603,457.0357 L492.6474,459.2367 L493.8848,461.2688 L495.3023,463.4228 L496.8784,465.6839 L496.7308,465.5838 L495.3083,467.83 L493.9466,470.1173 L492.3796,472.2656 L490.7599,474.378 L489.4224,476.6817 L489.4224,476.6817 L489.6042,476.7995 L490.6435,478.7196 L492.3943,481.1007 L493.7586,483.2313 L495.1302,485.3667 L496.3838,487.4256 L496.6357,487.6024 L494.8234,489.4585 L493.3325,491.5402 L492.1596,493.8452 L490.2827,495.656 L489.0289,497.904 L489.0289,497.904 L488.9252,497.8962 L489.369,501.7354 L489.6372,505.5612 L489.7368,509.3744 L490.1656,513.2124 L490.4736,517.0413 L490.4736,517.0413 L490.7606,517.2061 L491.9669,519.3504 L492.7305,521.2406 L494.2339,523.5556 L495.2489,525.5901 L496.6903,527.8695 L496.6813,527.8621 L495.2117,529.886 L493.6758,531.8559 L491.7229,533.4851 L490.51,535.7187 L488.7926,537.5403 L488.7926,537.5403 L488.7954,537.5428 L490.2816,539.2175 L491.9812,541.0858 L493.9156,543.1671 L495.5621,544.9872 L497.1517,546.7557 L497.1454,546.752 L495.6477,548.7605 L494.9142,551.2107 L493.2956,553.1493 L491.9671,555.2555 L490.9249,557.5272 L490.9249,557.5272 L490.8957,557.5208 L491.9523,561.0839 L492.7349,564.5867 L493.2545,568.0314 L493.9451,571.5139 L494.7822,575.0286 L494.8227,575.0923 L491.8017,577.0213 L488.6114,578.6838 L485.8063,580.9523 L482.8159,582.9295 L479.6578,584.6427 L479.6578,584.6427 L479.65,584.5471 L480.3526,584.5106 L481.1029,585.0575 L481.7896,584.8259 L482.4992,584.8745 L483.2095,584.9326 L483.2095,584.9326 L483.3019,585.0281 L480.8049,586.8594 L478.963,589.368 L476.5893,591.3268 L474.5956,593.6784 L472.1838,595.5978 L472.1359,595.5147 L469.6165,594.2233 L466.7691,592.3628 L464.2639,591.0961 L461.6357,589.6157 L458.8934,587.9376 L458.8934,587.9376 L458.785,587.8406 L457.3289,589.926 L455.3348,591.5297 L453.6835,593.4403 L452.3806,595.6631 L450.4699,597.3413 L450.6055,597.6136 L448.3227,596.4413 L445.8786,594.9457 L443.7663,594.1157 L441.3367,592.649 L439.1703,591.7106 L439.1703,591.7106 L439.1828,591.7333 L436.8619,592.9782 L434.4978,594.1445 L432.3776,595.7547 L430.0325,596.9556 L427.6294,598.0509 L427.5449,597.9361 L425.6466,596.679 L423.4107,594.9629 L421.1114,593.1606 L419.0821,591.7255 L417.0221,590.2485 L417.0221,590.2485 L416.8637,590.077 L414.9254,592.1008 L412.7229,593.8385 L410.6769,595.7456 L408.8243,597.8621 L406.7483,599.7368 L406.7222,599.6901 L404.2951,598.3476 L401.8363,596.9482 L399.4633,595.7021 L396.866,594.0554 L394.5461,592.9042 L394.5461,592.9042 L394.5931,592.9576 L392.2668,594.4711 L390.511,596.6324 L388.5372,598.5462 L386.4554,600.3374 L384.2411,601.978 L384.3199,602.1179 L381.8901,600.7052 L379.4783,599.3244 L376.9228,597.6883 L374.7669,596.7618 L372.2766,595.2416 L372.2766,595.2416 L372.3714,595.3534 L370.1095,596.9906 L368.0289,598.8416 L365.8476,600.5739 L363.8472,602.5193 L361.6616,604.2465 L361.7838,604.5232 L359.0513,602.9778 L356.6524,602.1876 L354.0055,600.8359 L351.4068,599.5932 L348.9282,598.6227 L348.9282,598.6227 L348.8289,598.4584 L346.5655,599.717 L344.3981,601.134 L342.2935,602.655 L340.1335,604.0845 L337.8564,605.3203 L338.0278,605.5105 L336.0592,603.726 L333.8003,601.6197 L332.274,600.3259 L330.3123,598.5492 L328.2454,596.6558 L328.2454,596.6558 L328.3752,596.8581 L325.8353,598.4776 L323.0165,599.6625 L320.5774,601.4393 L318.1797,603.2805 L315.5686,604.789 L315.4337,604.6228 L313.2003,602.8558 L310.9085,601.0167 L308.6416,599.2085 L306.2237,597.214 L303.8715,595.3005 L303.8715,595.3005 L304.0036,595.604 L301.3444,596.5994 L298.7168,597.6673 L295.9755,598.4741 L293.5312,599.9633 L290.8711,600.9565 L290.6814,600.7856 L289.0738,598.941 L287.0773,596.746 L285.2755,594.7263 L283.2496,592.5048 L281.3802,590.4244 L281.3802,590.4244 L281.3272,590.3552 L278.9892,591.8452 L276.9411,593.7129 L274.6178,595.222 L272.5514,597.0657 L270.4275,598.8345 L270.5395,598.9937 L268.2101,597.3033 L265.795,595.4911 L263.715,594.1548 L261.4104,592.4996 L259.1352,590.8861 L259.1352,590.8861 L259.2717,591.0852 L257.1388,592.5597 L254.8819,593.8534 L252.675,595.2199 L250.5277,596.6734 L248.4432,598.2184 L248.4414,598.2163 L246.6767,596.7471 L244.3251,594.5995 L242.5122,593.0747 L240.6763,591.5232 L238.6376,589.7373 L238.6376,589.7373 L238.7803,590.0295 L236.583,590.8459 L234.407,591.706 L232.2058,592.5145 L230.1711,593.6638 L228.1578,594.857 L228.1523,594.7586 L226.3323,594.9053 L224.4991,594.816 L222.6573,594.5725 L220.8188,594.3881 L218.9881,594.3446 L218.7848,594.0977 L217.6066,593.2209 L216.2752,592.1581 L214.9271,591.075 L213.344,589.7065 L211.8982,588.5048 L211.9313,588.5178 L210.959,586.2968 L210.305,584.2002 L209.1594,581.9116 L208.7195,579.8985 L207.6578,577.6427 L207.6578,577.6427 L207.5796,577.5316 L208.2954,577.9948 L209.2702,578.8256 L210.0985,579.4484 L210.7657,579.8426 L211.5243,580.3665 L211.5243,580.3665 L211.4806,580.3351 L210.0533,578.281 L208.4595,576.1073 L206.9062,573.9626 L205.4403,571.8808 L203.8847,569.7344 L203.7546,569.6647 L205.2744,567.5085 L206.6283,565.2633 L207.4576,562.7369 L208.7415,560.4542 L210.0704,558.1957 L210.0704,558.1957 L209.8677,558.1479 L209.263,554.3628 L208.2101,550.472 L207.5793,546.6808 L206.301,542.7368 L205.521,538.9104 L205.521,538.9104 L205.3965,538.8107 L203.8759,536.8095 L201.9468,534.4813 L200.3692,532.4345 L198.6255,530.2547 L196.7803,527.9936 L196.9367,528.1079 L198.2559,525.6078 L200.1112,523.4993 L201.9213,521.3578 L203.1839,518.8165 L205.0285,516.7001 L205.0285,516.7001 L205.1964,516.8487 L203.1964,514.6566 L201.6426,512.8592 L200.0887,511.0617 L197.9425,508.7403 L196.4334,506.9824 L196.702,507.158 L197.8243,504.7917 L199.1522,502.5598 L200.9655,500.6454 L201.8577,498.1286 L203.5335,496.1242 L203.5335,496.1242 L203.8021,496.1414 L203.1128,492.3031 L203.1767,488.5128 L203.1291,484.7154 L202.4966,480.8807 L202.3198,477.0751 L202.3198,477.0751 L202.159,476.974 L200.8138,474.8154 L199.5201,472.6892 L198.3345,470.6311 L196.6487,468.2583 L195.4921,466.2183 L195.6758,466.3521 L197.2046,464.2922 L198.2592,461.8872 L199.9699,459.9598 L201.3646,457.8024 L203.0405,455.8497 L203.0405,455.8497 L203.0942,455.9042 L201.0944,453.9276 L199.6341,452.4992 L197.9792,450.8732 L196.1278,449.0473 L194.4186,447.3661 L194.4838,447.3896 L195.2467,445.093 L196.1663,442.8531 L197.1851,440.649 L197.9822,438.3647 L198.5294,435.9902 L198.5294,435.9902 L198.6319,436.0523 L197.1923,433.7651 L195.911,431.5738 L194.521,429.3166 L193.1806,427.0895 L191.7519,424.8089 L191.9087,424.9385 L193.1673,422.5862 L195.2319,420.9 L196.9231,418.9052 L198.1811,416.5524 L200.0816,414.7306 L200.0816,414.7306 L200.3421,414.8342 L199.1549,412.283 L198.0619,409.7693 L196.8687,407.2156 L196.0159,404.7975 L195.17,402.382 L195.3688,402.5752 L196.8351,400.294 L199.0481,398.7382 L200.6536,396.5922 L202.6793,394.8545 L204.4308,392.8504 L204.4308,392.8504 L204.2119,392.8484 L204.2935,389.254 L204.6661,385.6623 L204.4425,382.0651 L204.2114,378.4678 L204.2653,374.8732 L204.2653,374.8732 L204.3482,374.9291 L202.8699,372.642 L201.1443,370.1879 L199.6997,367.9236 L198.0578,365.5261 L196.2757,363.0339 L196.3359,363.0848 L198.0744,360.814 L199.8652,358.5874 L201.6798,356.3809 L203.7411,354.3827 L205.4896,352.1204 L205.4896,352.1204 L205.502,352.1303 L204.1104,350.3058 L202.1858,348.0536 L200.6588,346.1205 L198.8721,343.979 L197.5232,342.1888 L197.6452,342.2797 L198.8109,339.9727 L200.3135,337.9168 L201.9815,335.9841 L203.4861,333.9297 L205.1316,331.9803 L205.1316,331.9803 L205.2289,332.0392 L203.5909,329.5954 L202.6338,327.5638 L200.8927,325.0576 L199.6546,322.8559 L198.1933,320.5191 L198.3685,320.6572 L199.7514,318.3354 L201.5482,316.3398 L203.2086,314.2367 L205.0106,312.2452 L206.4859,309.9962 L206.4859,309.9962 L206.1804,309.8859 L205.174,306.5418 L204.0384,303.1511 L203.0366,299.8087 L201.3142,296.2061 L200.297,292.8581 L200.3319,292.9028 L203.236,290.7006 L206.2064,288.5832 L208.7092,285.8673 L211.6471,283.7084 L214.6578,281.6427 L214.6578,281.6427 L214.411,281.5211 L215.1134,282.3192 L215.1028,282.7659 L215.5978,283.4619 L215.5789,283.9045 L216.1289,284.6275 " style="stroke:#181818;stroke-width:1.0;fill:none;"/><text fill="#000000" font-family="sans-serif" font-size="14" font-weight="bold" lengthAdjust="spacing" textLength="167" x="263.6578" y="299.6378">Console.Dot Platform</text></g><!--MD5=[1dd71329c573a7a13cd297b13839c017]
cluster idmsvc--><g id="cluster_idmsvc"><path d="M239.3243,325.8726 L239.3243,325.8726 L239.3271,325.9659 L242.5743,325.7858 L245.8378,326.153 L249.096,326.3419 L252.3367,325.9447 L255.6017,326.3589 L255.6017,326.3589 L255.6014,326.3244 L258.969,326.1492 L262.3376,326.1482 L265.7069,326.2682 L269.0738,325.971 L272.4441,326.2581 L272.4441,326.2581 L272.4848,326.5008 L275.1053,325.5282 L277.8446,325.2642 L280.5983,325.0866 L283.2678,324.406 L285.9816,323.99 L285.9816,323.99 L285.9829,324.0203 L289.4091,324.1201 L292.8412,324.358 L296.2704,324.5292 L299.7051,324.8275 L303.1222,324.7118 L303.1222,324.7118 L303.1365,325.0097 L305.9985,324.8764 L308.8513,324.5509 L311.7175,324.5067 L314.5844,324.4756 L317.4313,324.0269 L317.4313,324.0269 L317.4097,323.7071 L320.6283,324.1133 L323.7757,323.4665 L326.9772,323.6202 L330.1231,322.9495 L333.3145,322.9545 L333.3145,322.9545 L333.3101,322.9244 L336.4063,323.7323 L339.398,323.8366 L342.4514,324.356 L345.5099,324.9104 L348.5312,325.2132 L348.5312,325.2132 L348.5531,325.3969 L351.4462,324.8639 L354.3767,324.6448 L357.2467,323.9178 L360.207,323.9483 L363.1073,323.4752 L363.1073,323.4752 L363.1141,323.7187 L366.2293,323.5848 L369.348,323.5717 L372.4507,322.9968 L375.5651,322.8338 L378.6898,323.0356 L378.6898,323.0356 L378.6409,322.7638 L381.6836,323.549 L384.6712,324.028 L387.7388,324.9511 L390.6699,325.1158 L393.6821,325.7314 L393.6821,325.7314 L393.6752,325.579 L396.9182,325.686 L400.1316,325.1419 L403.3661,325.0608 L406.6211,325.4327 L409.8395,324.9979 L409.8395,324.9979 L409.859,325.1905 L413.3416,325.6734 L416.7635,325.5571 L420.2614,326.1913 L423.7427,326.6619 L427.1855,326.7516 L427.1855,326.7516 L427.1662,326.5426 L430.0171,326.4472 L432.8616,326.2834 L435.7185,326.2541 L438.5272,325.7018 L441.3628,325.4417 L441.3628,325.4417 L441.4283,325.6366 L443.845,324.3479 L446.3882,323.4354 L449.116,323.0725 L451.5038,321.6978 L454.166,321.1394 L454.3419,321.2816 L455.9357,323.2978 L457.4701,325.2659 L459.1388,327.3425 L461.118,329.6702 L462.6578,331.6427 L462.6578,331.6427 L462.581,331.5341 L463.229,332.1541 L463.3545,332.0354 L464.0742,332.7567 L464.4593,333.005 L464.7543,333.1259 L464.7543,333.1259 L464.8626,333.1374 L465.1919,337.0481 L465.9089,340.9999 L466.2757,344.9146 L466.4961,348.8136 L466.838,352.7256 L466.838,352.7256 L466.9252,352.8069 L468.5179,354.5332 L470.5153,356.6369 L472.0549,358.3138 L473.7828,360.1662 L475.4488,361.961 L475.21,361.8342 L474.1056,364.107 L473.2889,366.5326 L472.0651,368.7421 L470.6954,370.8741 L469.5281,373.1136 L469.5281,373.1136 L469.3864,373.0924 L470.0032,376.9143 L470.3691,380.6987 L471.4244,384.5864 L472.1385,388.4229 L472.3848,392.1894 L472.3848,392.1894 L472.5833,392.3132 L474.1593,394.7769 L475.3582,397.0052 L476.9551,399.4819 L478.2886,401.7942 L479.9472,404.3094 L480.0425,404.3922 L478.1556,406.5378 L476.3838,408.7833 L474.2471,410.7118 L472.4047,412.896 L470.5754,415.0916 L470.5754,415.0916 L470.7664,415.1406 L469.8446,418.9556 L468.4046,422.6378 L467.5667,426.4743 L466.7394,430.3136 L465.7,434.0985 L465.7,434.0985 L465.4357,434.0364 L466.616,437.3836 L467.3379,440.6232 L467.9458,443.8359 L468.8141,447.1098 L469.5157,450.3446 L469.6961,450.6135 L466.6666,452.0887 L464.0505,454.1801 L461.2717,456.0289 L458.4581,457.8258 L455.6578,459.6427 L455.6578,459.6427 L455.6787,459.7017 L456.043,459.8204 L456.3023,459.6415 L456.7038,459.8652 L457.0632,459.9699 L457.5,460.2935 L457.5,460.2935 L457.5055,460.3213 L454.3875,460.953 L451.2737,461.6063 L448.1143,462.03 L445.0136,462.7486 L441.8993,463.3991 L441.8993,463.3991 L441.8967,463.3457 L438.614,463.8144 L435.3132,463.9068 L431.996,463.6611 L428.7072,464.0034 L425.4111,464.195 L425.4111,464.195 L425.3915,463.9392 L422.3814,464.556 L419.3527,464.9312 L416.3109,465.1361 L413.238,464.9351 L410.2132,465.3614 L410.2132,465.3614 L410.244,465.5653 L406.9971,465.5133 L403.8928,466.406 L400.6928,466.6649 L397.5522,467.3173 L394.379,467.7531 L394.379,467.7531 L394.3909,467.8593 L391.6709,468.2685 L388.8802,468.0489 L386.2079,468.8837 L383.4616,469.0592 L380.7212,469.2873 L380.7212,469.2873 L380.7291,469.4451 L377.6542,469.773 L374.5542,469.5973 L371.4744,469.8264 L368.3916,469.997 L365.3033,470.056 L365.3033,470.056 L365.3109,470.1434 L362.1651,470.3281 L359.0542,470.9156 L355.8652,470.6034 L352.7722,471.3961 L349.6123,471.4183 L349.6123,471.4183 L349.5888,471.1419 L346.5393,470.9201 L343.5085,470.9183 L340.4554,470.6542 L337.3831,470.1646 L334.349,470.124 L334.349,470.124 L334.3726,470.3063 L330.9262,469.7281 L327.5324,469.5566 L324.1,469.0865 L320.6073,468.151 L317.2039,467.9047 L317.2039,467.9047 L317.2003,467.7279 L314.1074,467.911 L311.0165,468.1901 L307.9217,468.2748 L304.8254,468.2933 L301.7274,468.2232 L301.7274,468.2232 L301.6961,468.0744 L298.8626,467.8862 L295.9395,467.2714 L292.9544,466.3614 L290.014,465.6642 L287.1129,465.1545 L287.1129,465.1545 L287.0954,464.977 L283.7163,464.7257 L280.3443,464.5475 L276.9481,464.1226 L273.5456,463.6342 L270.1765,463.4851 L270.1765,463.4851 L270.1969,463.7007 L267.3194,463.0143 L264.5216,463.172 L261.6805,462.8711 L258.8403,462.5789 L255.9868,462.1467 L255.9868,462.1467 L256.0605,462.4455 L252.8574,462.8062 L249.7483,463.5482 L246.7323,464.6674 L243.5103,464.9516 L240.4706,465.9747 L240.3838,465.9174 L238.7508,463.3366 L236.9709,460.6588 L235.05,457.8877 L233.4044,455.2986 L231.6578,452.6427 L231.6578,452.6427 L231.897,452.8714 L232.1473,453.136 L232.0286,453.0478 L232.5265,453.5492 L232.6174,453.6614 L233.0636,454.1134 L233.0636,454.1134 L233.0548,454.1057 L231.4766,452.2687 L229.834,450.3754 L227.7858,448.128 L226.4574,446.5091 L224.6382,444.4616 L224.6415,444.4633 L225.5674,442.061 L226.7507,439.7879 L228.2174,437.6571 L229.3367,435.3519 L230.3873,433.0121 L230.3873,433.0121 L230.3801,433.011 L229.5392,429.3188 L229.5709,425.7587 L228.5919,422.0455 L227.9441,418.3825 L227.6233,414.7691 L227.6233,414.7691 L227.6014,414.7487 L226.1389,413.1491 L224.4712,411.3583 L222.6063,409.3839 L220.8696,407.5288 L219.2427,405.776 L219.3112,405.8075 L220.3439,403.5764 L221.0897,401.2135 L222.4881,399.1503 L223.5727,396.943 L224.3731,394.6051 L224.3731,394.6051 L224.2855,394.5661 L223.1594,392.194 L222.5682,390.0601 L221.2634,387.6084 L220.2154,385.2711 L219.1761,382.9376 L219.276,383.0253 L220.6465,380.8291 L222.7251,379.2548 L224.229,377.1757 L226.1435,375.4574 L227.6062,373.3421 L227.6062,373.3421 L227.5217,373.2966 L226.6122,371.2827 L225.1242,368.9577 L224.2397,366.9573 L223.1381,364.8401 L221.8356,362.6147 L221.7228,362.5228 L223.5004,360.8288 L224.7183,358.6785 L226.2929,356.819 L228.2299,355.2551 L229.5346,353.1754 L229.5346,353.1754 L229.8291,353.2512 L228.8966,349.8112 L227.6142,346.281 L227.0521,342.9364 L225.8009,339.4143 L225.1214,336.0394 L225.1381,336.0592 L227.8283,333.7596 L230.4609,331.3915 L233.4196,329.4108 L236.0774,327.0727 L238.6578,324.6427 L238.6578,324.6427 L238.5325,324.5748 L238.9969,325.0002 L238.9603,325.1541 L238.8297,325.257 L239.0998,325.5772 L239.3243,325.8726 " style="stroke:#181818;stroke-width:1.0;fill:none;"/><text fill="#000000" font-family="sans-serif" font-size="14" font-weight="bold" lengthAdjust="spacing" textLength="55" x="319.6578" y="342.6378">idmsvc</text></g><!--MD5=[0f533a43c0b2f7679aae6c105029b1e0]
cluster Postgresql--><g id="cluster_Postgresql"><path d="M345.6578,369.6427 L345.6578,369.6427 L345.713,369.718 L347.1271,368.3379 L348.8648,367.3995 L350.4972,366.3172 L351.7829,364.7619 L353.5484,363.8614 L353.5426,363.8274 L356.9884,363.0809 L360.4635,362.5059 L363.959,362.0503 L367.3841,361.1836 L370.9078,360.8927 L370.9233,361.1383 L374.3621,360.3944 L377.846,360.3675 L381.3355,360.428 L384.7929,359.9796 L388.2672,359.7989 L388.2678,359.8293 L389.845,359.7535 L391.425,359.8158 L393.0037,359.8115 L394.5848,359.9342 L396.1578,359.6427 L396.1578,359.6427 L396.1637,359.9409 L397.7419,359.9758 L399.3163,359.8183 L400.8963,359.9424 L402.4765,360.0797 L404.0484,359.7989 L404.0283,359.479 L407.5393,360.3187 L410.9839,360.1049 L414.479,360.692 L417.9221,360.4544 L421.4078,360.8927 L421.4027,360.8627 L424.9352,361.8113 L428.3479,362.0588 L431.8313,362.7201 L435.3207,363.416 L438.7672,363.8614 L438.8765,364.0107 L440.3443,365.0163 L441.9989,366.2769 L443.3512,367.125 L445.1544,368.5884 L446.6578,369.6427 L448.1197,369.6427 L447.8432,380.3094 L448.2925,390.976 L445.3696,401.6427 L444.9187,412.3094 L445.0007,422.976 L446.6578,433.6427 L446.6578,433.6427 L446.6423,433.6216 L445.0281,434.7285 L443.6805,436.1995 L441.8776,437.0488 L440.2552,438.1447 L438.7672,439.4239 L438.7843,439.5239 L435.2453,439.7256 L431.7845,440.384 L428.4002,441.4895 L424.9123,441.9898 L421.4078,442.3927 L421.4283,442.7185 L417.9269,442.4687 L414.473,442.9718 L411.0087,443.3108 L407.5071,443.0581 L404.0484,443.4864 L404.0476,443.4438 L402.4714,443.5737 L400.8979,443.8386 L399.314,443.5783 L397.74,443.817 L396.1578,443.6427 L396.1578,443.6427 L396.1529,443.3966 L394.5737,443.3105 L393.006,443.804 L391.4171,443.2304 L389.8498,443.7439 L388.2672,443.4864 L388.273,443.5781 L384.7878,443.1489 L381.3135,442.892 L377.8644,443.0337 L374.3713,442.4787 L370.9078,442.3927 L370.9522,442.652 L367.3945,441.5568 L364.0103,441.4757 L360.5285,440.8236 L357.0387,440.125 L353.5484,439.4239 L353.5608,439.4409 L352.1612,438.5282 L350.5534,437.3314 L348.8585,436.0159 L347.3064,434.8951 L345.6578,433.6427 L345.3104,433.6427 L347.5683,422.976 L346.0708,412.3094 L346.118,401.6427 L344.0355,390.976 L344.5772,380.3094 L345.6578,369.6427 " style="stroke:#181818;stroke-width:1.0;fill:none;"/><path d="M345.6578,369.6427 L345.6578,369.6427 L345.713,369.718 L347.1271,370.6504 L348.8648,372.0245 L350.4972,373.2547 L351.7829,374.0119 L353.5484,375.4239 L353.5426,375.3899 L356.9884,375.8309 L360.4635,376.4434 L363.959,377.1753 L367.3841,377.4961 L370.9078,378.3927 L370.9233,378.6383 L374.3621,378.3319 L377.846,378.7425 L381.3355,379.2405 L384.7929,379.2296 L388.2672,379.4864 L388.2678,379.5168 L389.845,379.5035 L391.425,379.6283 L393.0037,379.6865 L394.5848,379.8717 L396.1578,379.6427 L396.1578,379.6427 L396.1637,379.9409 L397.7419,379.9133 L399.3163,379.6933 L400.8963,379.7549 L402.4765,379.8297 L404.0484,379.4864 L404.0283,379.1665 L407.5393,379.5687 L410.9839,378.9174 L414.479,379.067 L417.9221,378.3919 L421.4078,378.3927 L421.4027,378.3627 L424.9352,378.1238 L428.3479,377.1838 L431.8313,376.6576 L435.3207,376.166 L438.7672,375.4239 L438.8765,375.5732 L440.3443,374.2663 L441.9989,373.2144 L443.3512,371.75 L445.1544,370.9009 L446.6578,369.6427 " fill="none" style="stroke:#181818;stroke-width:1.0;"/><text fill="#000000" font-family="sans-serif" font-size="14" font-weight="bold" lengthAdjust="spacing" textLength="85" x="353.6578" y="394.6378">Postgresql</text></g><!--MD5=[8890788e37b11dd3053f547e2b5ce265]
entity domain--><g id="elem_domain"><polygon fill="#F1F1F1" points="68.702,197.5886,67.5293,199.1909,66.1423,201.5378,64.1586,203.1193,62.0741,203.9842,60.412,204.0593,58.2758,202.9776,56.2601,202.271,54.7302,200.8363,53.9277,199.1938,53.4518,197.886,52.9855,196.1777,52.2287,194.7078,52.8103,193.2725,53.3198,191.7003,55.2318,190.4569,56.5771,188.8435,58.2421,188.3077,60.2215,187.8464,62.7599,188.1205,64.1502,188.7762,65.7667,189.0734,67.7321,191.087,68.4173,193.2128,68.715,194.6633,68.3778,197.0535" style="stroke:#181818;stroke-width:0.5;"/><text fill="#000000" font-family="sans-serif" font-size="14" lengthAdjust="spacing" textLength="51" x="35.1578" y="225.6378">Freeipa</text></g><!--MD5=[da9746410650acf9fab14ea35e32d13b]
entity host--><g id="elem_host"><polygon fill="#F1F1F1" points="70.702,78.5886,69.5293,80.1909,68.1423,82.5378,66.1586,84.1193,64.0741,84.9842,62.412,85.0593,60.2758,83.9776,58.2601,83.271,56.7302,81.8363,55.9277,80.1938,55.4518,78.886,54.9855,77.1777,54.2287,75.7078,54.8103,74.2725,55.3198,72.7003,57.2318,71.4569,58.5771,69.8435,60.2421,69.3077,62.2215,68.8464,64.7599,69.1205,66.1502,69.7762,67.7667,70.0734,69.7321,72.087,70.4173,74.2128,70.715,75.6633,70.3778,78.0535" style="stroke:#181818;stroke-width:0.5;"/><text fill="#000000" font-family="sans-serif" font-size="14" lengthAdjust="spacing" textLength="57" x="34.1578" y="106.6378">Host VM</text></g><!--MD5=[89728e2d0d5261bb83c8a6a44c161d56]
entity service_hbi--><g id="elem_service_hbi"><polygon fill="#F1F1F1" points="255.6578,530.6427,255.6578,530.8529,265.3245,530.2284,274.9911,530.836,284.6578,531.0424,294.3245,529.9293,303.9911,530.565,313.6578,530.6427,313.6034,530.5113,313.9624,530.671,314.3562,530.9146,314.6303,530.8691,315.1426,531.399,315.4256,531.3749,315.2315,531.2945,315.5111,531.7033,315.8515,532.1371,315.8385,532.4246,316.0324,532.7978,316.1578,533.1427,316.1472,533.1427,316.2173,541.4021,316.2375,549.6614,316.353,557.9208,316.3815,566.1802,316.1578,574.4396,316.367,574.5262,316.0898,574.8256,316.0077,575.2058,315.9347,575.5898,315.3499,575.7618,315.4256,576.2073,315.5121,576.4163,315.0342,576.2625,314.7866,576.6646,314.3018,576.4942,314.0026,576.772,313.6578,576.9396,313.6578,577.6812,303.9911,576.8908,294.3245,577.0449,284.6578,577.2782,274.9911,577.3558,265.3245,576.9357,255.6578,576.9396,255.6944,577.028,255.2312,576.6168,254.987,576.7343,254.6671,576.669,254.3003,576.4907,253.89,576.2073,254.0788,576.2855,253.5948,575.7922,253.3963,575.417,253.2593,575.0674,253.2861,574.7856,253.1578,574.4396,253.0923,574.4396,253.3849,566.1802,253.0996,557.9208,253.0435,549.6614,253.2339,541.4021,253.1578,533.1427,252.9524,533.0576,253.1444,532.7229,253.6506,532.5184,253.7313,532.1376,253.9698,531.8222,253.89,531.3749,253.849,531.2758,254.2843,531.3268,254.6725,531.2639,254.8904,530.7901,255.292,530.7596,255.6578,530.6427" style="stroke:#181818;stroke-width:0.5;"/><polygon fill="#F1F1F1" points="296.1578,535.6427,296.1578,535.7128,299.1578,535.5046,302.1578,535.7071,305.1578,535.7759,308.1578,535.4049,311.1578,535.6427,311.1319,535.6427,311.0156,537.6427,311.03,539.6427,311.1351,541.6427,310.9274,543.6427,311.1578,545.6427,311.1578,545.8272,308.1578,545.4326,305.1578,545.5768,302.1578,545.7867,299.1578,545.6141,296.1578,545.6427,296.1806,545.6427,296.1472,543.6427,296.2173,541.6427,296.2375,539.6427,296.353,537.6427,296.1578,535.6427" style="stroke:#181818;stroke-width:0.5;"/><polygon fill="#F1F1F1" points="294.1578,537.6427,294.1578,537.7128,294.9578,537.5046,295.7578,537.7071,296.5578,537.7759,297.3578,537.4049,298.1578,537.6427,298.1319,537.6427,298.0156,538.0427,298.03,538.4427,298.1351,538.8427,297.9274,539.2427,298.1578,539.6427,298.1578,539.8272,297.3578,539.4326,296.5578,539.5768,295.7578,539.7867,294.9578,539.6141,294.1578,539.6427,294.1806,539.6427,294.1472,539.2427,294.2173,538.8427,294.2375,538.4427,294.353,538.0427,294.1578,537.6427" style="stroke:#181818;stroke-width:0.5;"/><polygon fill="#F1F1F1" points="294.1578,541.6427,294.1578,541.7128,294.9578,541.5046,295.7578,541.7071,296.5578,541.7759,297.3578,541.4049,298.1578,541.6427,298.1319,541.6427,298.0156,542.0427,298.03,542.4427,298.1351,542.8427,297.9274,543.2427,298.1578,543.6427,298.1578,543.8272,297.3578,543.4326,296.5578,543.5768,295.7578,543.7867,294.9578,543.6141,294.1578,543.6427,294.1806,543.6427,294.1472,543.2427,294.2173,542.8427,294.2375,542.4427,294.353,542.0427,294.1578,541.6427" style="stroke:#181818;stroke-width:0.5;"/><text fill="#000000" font-family="sans-serif" font-size="14" lengthAdjust="spacing" textLength="23" x="268.1578" y="563.6378">HBI</text></g><!--MD5=[feb32bff48e46e6ad03f7e65d8d937cc]
entity service_idmsvc--><g id="elem_service_idmsvc"><polygon fill="#F1F1F1" points="242.1578,395.6427,242.1578,395.8529,251.6023,395.2284,261.0467,395.836,270.4911,396.0424,279.9356,394.9293,289.38,395.565,298.8245,395.2162,308.2689,395.2592,317.7134,395.5745,327.1578,395.6427,327.0696,395.4298,327.582,395.9596,327.7845,395.7415,328.1932,396.0211,328.6271,396.3615,328.9256,396.3749,328.8992,396.364,329.093,396.7372,329.2086,397.078,329.4199,397.4584,329.585,397.8196,329.6578,398.1427,329.853,398.1427,329.8815,406.4021,329.8842,414.6614,329.7427,422.9208,329.8123,431.1802,329.6578,439.4396,329.8741,439.5291,329.2893,439.7011,329.5739,440.2332,329.1272,440.4624,329.2364,440.9219,328.9256,441.2073,328.8624,441.0549,328.5633,441.3327,328.3131,441.7286,327.8587,441.6317,327.5248,441.8255,327.1578,441.9396,327.1578,442.2782,317.7134,442.3558,308.2689,441.9357,298.8245,442.2268,289.38,441.3671,279.9356,442.224,270.4911,442.4878,261.0467,442.3841,251.6023,442.5526,242.1578,441.9396,242.0962,441.7908,241.7211,441.5923,241.3714,441.4553,241.0896,441.4821,240.7185,441.2933,240.39,441.2073,240.5999,441.2943,240.1898,440.8315,239.9915,440.4565,240.021,440.1758,239.5989,439.7081,239.6578,439.4396,239.4848,439.4396,239.8741,431.1802,239.803,422.9208,239.9026,414.6614,239.5505,406.4021,239.6578,398.1427,239.7561,398.1834,239.9861,397.8645,239.8052,397.3753,240.0676,397.0698,240.2824,396.7445,240.39,396.3749,240.4732,396.5756,240.7431,396.2272,241.1562,396.2245,241.3801,395.765,241.7179,395.5806,242.1578,395.6427" style="stroke:#181818;stroke-width:0.5;"/><polygon fill="#F1F1F1" points="309.6578,400.6427,309.6578,400.7128,312.6578,400.5046,315.6578,400.7071,318.6578,400.7759,321.6578,400.4049,324.6578,400.6427,324.6319,400.6427,324.5156,402.6427,324.53,404.6427,324.6351,406.6427,324.4274,408.6427,324.6578,410.6427,324.6578,410.8272,321.6578,410.4326,318.6578,410.5768,315.6578,410.7867,312.6578,410.6141,309.6578,410.6427,309.6806,410.6427,309.6472,408.6427,309.7173,406.6427,309.7375,404.6427,309.853,402.6427,309.6578,400.6427" style="stroke:#181818;stroke-width:0.5;"/><polygon fill="#F1F1F1" points="307.6578,402.6427,307.6578,402.7128,308.4578,402.5046,309.2578,402.7071,310.0578,402.7759,310.8578,402.4049,311.6578,402.6427,311.6319,402.6427,311.5156,403.0427,311.53,403.4427,311.6351,403.8427,311.4274,404.2427,311.6578,404.6427,311.6578,404.8272,310.8578,404.4326,310.0578,404.5768,309.2578,404.7867,308.4578,404.6141,307.6578,404.6427,307.6806,404.6427,307.6472,404.2427,307.7173,403.8427,307.7375,403.4427,307.853,403.0427,307.6578,402.6427" style="stroke:#181818;stroke-width:0.5;"/><polygon fill="#F1F1F1" points="307.6578,406.6427,307.6578,406.7128,308.4578,406.5046,309.2578,406.7071,310.0578,406.7759,310.8578,406.4049,311.6578,406.6427,311.6319,406.6427,311.5156,407.0427,311.53,407.4427,311.6351,407.8427,311.4274,408.2427,311.6578,408.6427,311.6578,408.8272,310.8578,408.4326,310.0578,408.5768,309.2578,408.7867,308.4578,408.6141,307.6578,408.6427,307.6806,408.6427,307.6472,408.2427,307.7173,407.8427,307.7375,407.4427,307.853,407.0427,307.6578,406.6427" style="stroke:#181818;stroke-width:0.5;"/><text fill="#000000" font-family="sans-serif" font-size="14" lengthAdjust="spacing" textLength="50" x="254.6578" y="428.6378">Service</text></g><!--MD5=[f50ff5e4cd64f259303fc83dba1819fc]
entity database--><g id="elem_database"><polygon fill="#F1F1F1" points="381.702,420.5886,380.5293,422.1909,379.1423,424.5378,377.1586,426.1193,375.0741,426.9842,373.412,427.0593,371.2758,425.9776,369.2601,425.271,367.7302,423.8363,366.9277,422.1938,366.4518,420.886,365.9855,419.1777,365.2287,417.7078,365.8103,416.2725,366.3198,414.7003,368.2318,413.4569,369.5771,411.8435,371.2421,411.3077,373.2215,410.8464,375.7599,411.1205,377.1502,411.7762,378.7667,412.0734,380.7321,414.087,381.4173,416.2128,381.715,417.6633,381.3778,420.0535" style="stroke:#181818;stroke-width:0.5;"/><text fill="#000000" font-family="sans-serif" font-size="14" lengthAdjust="spacing" textLength="32" x="357.6578" y="448.6378">Data</text></g><!--MD5=[4dd5cfdbfacc03eb11db5fe62cdfafba]
entity http_requests--><g id="elem_http_requests"><polygon fill="#F1F1F1" points="111.702,420.5886,110.5293,422.1909,109.1423,424.5378,107.1586,426.1193,105.0741,426.9842,103.412,427.0593,101.2758,425.9776,99.2601,425.271,97.7302,423.8363,96.9277,422.1938,96.4518,420.886,95.9855,419.1777,95.2287,417.7078,95.8103,416.2725,96.3198,414.7003,98.2318,413.4569,99.5771,411.8435,101.2421,411.3077,103.2215,410.8464,105.7599,411.1205,107.1502,411.7762,108.7667,412.0734,110.7321,414.087,111.4173,416.2128,111.715,417.6633,111.3778,420.0535" style="stroke:#181818;stroke-width:0.5;"/><text fill="#000000" font-family="sans-serif" font-size="14" lengthAdjust="spacing" textLength="66" x="70.6578" y="448.6378">Public API</text></g><!--MD5=[875a613e4697df01191de7c4af4b21b4]
link host to domain--><g id="link_host_domain"><path d="M62.5178,85.6827 L62.798,85.6875 L61.8015,95.2552 L62.4475,104.8511 L62.5586,114.4378 L60.9108,123.9944 L61.5942,133.5909 L60.9652,143.165 L60.8586,152.7479 L61.1149,162.3371 L60.1201,171.9049 L60.8778,181.5027 " fill="none" style="stroke:#181818;stroke-width:1.0;"/><polygon fill="#181818" points="60.7978,186.5427,60.8613,186.5722,61.5033,184.6984,62.5177,182.9978,63.4108,181.2408,63.9051,179.2983,64.9515,177.6126,64.9335,177.5939,64.0391,178.2965,63.2355,179.093,62.4949,179.9547,61.537,180.5915,60.8835,181.5434,61.0162,181.6717,59.9463,180.5838,59.2638,179.8704,58.6285,179.2027,57.7183,178.2692,56.9527,177.4755,56.9736,177.4843,57.7119,179.2847,58.5455,181.1256,59.3331,182.9469,60.2085,184.8055,60.7978,186.5427" style="stroke:#181818;stroke-width:1.0;"/></g><!--MD5=[98b573c3529443dba844d07da6ade6f6]
link host to http_requests--><g id="link_host_http_requests"><path d="M68.9578,85.8927 L69.0345,85.946 L70.8123,88.6713 L73.0397,91.7092 L75.1207,94.6453 L76.7203,97.2465 L78.9862,100.3113 L78.9571,100.2927 L79.9998,102.0531 L81.1894,103.9069 L82.4812,105.8257 L83.421,107.5206 L84.8537,109.5291 L85.0658,109.6539 L85.8191,111.438 L87.1916,113.5865 L88.6396,115.7794 L89.6481,117.7136 L90.8878,119.7839 L90.9146,119.7982 L92.0551,121.9903 L93.3175,124.2474 L94.5211,126.4731 L95.8368,128.7586 L96.7869,130.8492 L97.0569,130.9759 L98.1527,133.3073 L99.0744,135.557 L100.2509,137.9263 L101.4395,140.3011 L102.2494,142.4985 L101.9511,142.3811 L103.4748,145.0102 L104.0164,147.2529 L105.3047,149.7893 L105.824,152.0232 L106.9736,154.5051 L106.9444,154.4963 L108.0258,157.0284 L108.4265,159.3539 L109.2289,161.8013 L110.065,164.2589 L110.6578,166.6427 L110.8384,166.6826 L111.3978,170.0001 L112.2657,173.3858 L112.6343,176.6613 L113.7478,180.1012 L114.366,183.4318 L114.6064,183.4713 L115.1258,186.9012 L115.7645,190.3508 L115.8486,193.7092 L116.3393,197.1344 L117.1902,200.6188 L116.9158,200.5871 L117.5674,204.1046 L117.9099,207.5865 L118.7008,211.1201 L118.7261,214.5652 L119.2065,218.063 L119.0544,218.0519 L119.5646,221.5825 L119.4247,225.0656 L119.7471,228.5824 L120.5218,232.1324 L120.4911,235.6235 L120.6846,235.6304 L120.9431,239.1424 L120.5998,242.6327 L121.0103,246.1501 L121.2566,249.6616 L121.1202,253.1594 L120.9103,253.1588 L121.0876,256.6334 L121.1961,260.1078 L121.4398,263.5826 L121.1582,267.0558 L121.1701,270.5299 L121.3756,270.5354 L120.8334,273.9363 L120.6878,277.3477 L121.1218,280.7745 L120.4889,284.1729 L120.7168,287.5942 L120.9427,287.6062 L120.6324,290.9225 L120.2458,294.2348 L120.0316,297.5562 L120.2162,300.8988 L119.8366,304.2114 L119.7039,304.2013 L119.8526,307.4374 L119.0992,310.6043 L119.3716,313.85 L119.0664,317.0513 L118.6056,320.2407 L118.714,320.2514 L118.3254,323.3029 L118.3248,326.3925 L117.9737,329.4477 L117.4761,332.4885 L117.1001,335.5412 L117.2185,335.5552 L116.7018,338.4206 L116.7348,341.3509 L116.1461,344.2078 L115.8132,347.0949 L115.3962,349.9721 L115.1283,349.9357 L114.8525,352.6319 L114.8995,355.3721 L114.4898,358.0501 L113.9165,360.7059 L113.5702,363.3925 L113.4286,363.3709 L113.0996,365.8317 L112.5199,368.2542 L112.6291,370.7818 L112.3974,373.2574 L111.6981,375.6617 L111.9288,375.7004 L111.6343,377.9082 L110.9014,380.0424 L110.6312,382.2542 L110.0547,384.4147 L109.8562,386.6386 L109.9803,386.6619 L109.3063,390.1617 L108.7821,393.6895 L107.7829,397.1282 L107.1668,400.6389 L106.5678,404.1527 " fill="none" style="stroke:#181818;stroke-width:1.0;"/><polygon fill="#181818" points="105.5178,409.2327,105.5748,409.2734,106.5501,407.5494,107.8596,406.0641,109.0603,404.501,109.903,402.6824,111.2413,401.2176,111.227,401.196,110.2188,401.7223,109.2825,402.3576,108.3962,403.0686,107.3376,403.5186,106.5204,404.3342,106.6744,404.4359,105.7218,403.2743,105.2187,402.4096,104.7706,401.5811,104.0032,400.5418,103.4037,399.6134,103.426,399.6183,103.8162,401.535,104.3075,403.4739,104.75,405.4021,105.2857,407.3507,105.5178,409.2327" style="stroke:#181818;stroke-width:1.0;"/></g><!--MD5=[c570c79e19e2f47484332ab018a871aa]
link domain to http_requests--><g id="link_domain_http_requests"><path d="M62.2378,204.7727 L62.5129,204.8262 L63.6351,214.6352 L66.3698,224.7579 L68.5794,234.7785 L69.0621,244.463 L71.8336,254.5929 L73.3166,264.4721 L75.3124,274.451 L77.6646,284.4993 L78.7885,294.3086 L82.3574,304.5937 L82.7474,314.2602 L85.253,324.3383 L88.0166,334.4667 L89.2785,344.3028 L91.4196,354.3101 L93.228,364.2526 L95.443,374.2742 L97.4618,384.2576 L99.8549,394.3138 L101.0278,404.1327 " fill="none" style="stroke:#181818;stroke-width:1.0;"/><polygon fill="#181818" points="102.0178,409.2027,102.0861,409.2183,102.3233,407.2519,102.9608,405.3771,103.4679,403.4725,103.5463,401.4696,104.2182,399.6028,104.1967,399.5883,103.4685,400.4619,102.8486,401.4085,102.304,402.4057,101.4999,403.2282,101.0592,404.2954,101.1623,404.4485,100.0034,403.4894,99.1454,402.9772,98.3241,402.5195,97.2892,401.7446,96.3666,401.1365,96.3852,401.1495,97.4881,402.7436,98.6758,404.3971,99.8226,406.0219,101.0475,407.7015,102.0178,409.2027" style="stroke:#181818;stroke-width:1.0;"/></g><!--MD5=[e5356a9bee342faa635d0f082616bc44]
link http_requests to service_idmsvc--><g id="link_http_requests_service_idmsvc"><path d="M112.8778,418.6427 L112.8778,418.9229 L122.6278,418.0903 L132.3778,418.9004 L142.1278,419.1756 L151.8778,417.6915 L161.6278,418.5391 L171.3778,418.074 L181.1278,418.1314 L190.8778,418.5518 L200.6278,417.7209 L210.3778,419.3809 L220.1278,417.8023 L229.8778,418.379 L239.6278,418.6427 " fill="none" style="stroke:#181818;stroke-width:1.0;"/><text fill="#000000" font-family="sans-serif" font-size="13" lengthAdjust="spacing" textLength="90" x="131.1578" y="411.7096">/api/idmsvc/v*</text></g><!--MD5=[be97d79d41ebb80146caf98a38fc1792]
link service_idmsvc to service_hbi--><g id="link_service_idmsvc_service_hbi"><path d="M284.6578,441.9027 L284.9381,441.9027 L284.1054,452.3177 L284.9155,462.7327 L285.1907,473.1477 L283.7066,483.5627 L284.5542,493.9777 L284.0892,504.3927 L284.1465,514.8077 L284.6578,525.2227 " fill="none" style="stroke:#181818;stroke-width:1.0;"/><polygon fill="#181818" points="284.6578,530.3127,284.7218,530.3411,285.3316,528.4566,286.3167,526.7389,287.1796,524.9668,287.6405,523.0161,288.6578,521.3127,288.6395,521.2944,287.7573,522.0122,286.9674,522.8223,286.2417,523.6966,285.2949,524.3497,284.6578,525.3127,284.7883,525.4432,283.7093,524.3641,283.0112,523.6661,282.3596,523.0145,281.4376,522.0925,280.6578,521.3127,280.6786,521.3219,281.4481,523.1084,282.3122,524.9369,283.1307,526.7451,284.0362,528.592,284.6578,530.3127" style="stroke:#181818;stroke-width:1.0;"/><text fill="#000000" font-family="sans-serif" font-size="13" lengthAdjust="spacing" textLength="116" x="285.6578" y="496.7096">/api/inventory/v1/*</text></g><!--MD5=[a2426b86497d13fc15660a87b8cd82f6]
link service_idmsvc to database--><g id="link_service_idmsvc_database"><path d="M329.8578,418.6427 L329.8578,418.7361 L336.7698,418.4586 L343.6818,418.7286 L350.5938,418.8203 L357.5058,418.3256 L364.4178,418.6427 " fill="none" style="stroke:#181818;stroke-width:1.0;"/></g><!--MD5=[cd1bd6ac3aea1f4e5abb9ac6342910ad]
@startuml architecture

skinparam handwritten true

() "Public API" as http_requests

cloud "Client AWS" {
    () "Freeipa" as domain
    () "Host VM" as host
    host - -> domain
    host - -> http_requests
    domain - -> http_requests
}

cloud "Console.Dot Platform" {
    [HBI] as service_hbi
    cloud "idmsvc" {
        ' () "Kafka Consumers" as kafka_consumer
        ' () "Kafka Producers" as kafka_producer
        ' () "Http Clients" as http_clients

        database "Postgresql" {
            () "Data" as database
        }

        [Service] as service_idmsvc

        http_requests - service_idmsvc: /api/idmsvc/v*
        service_idmsvc - -> service_hbi: /api/inventory/v1/*
        ' service - http_clients: third party services
        ' service - kafka_producer: produce event topics
        ' kafka_consumer - service: kafka handler
        service_idmsvc - database
    }
}

@enduml

@startuml architecture

skinparam handwritten true

() "Public API" as http_requests

cloud "Client AWS" {
    () "Freeipa" as domain
    () "Host VM" as host
    host - -> domain
    host - -> http_requests
    domain - -> http_requests
}

cloud "Console.Dot Platform" {
    [HBI] as service_hbi
    cloud "idmsvc" {

        database "Postgresql" {
            () "Data" as database
        }

        [Service] as service_idmsvc

        http_requests - service_idmsvc: /api/idmsvc/v*
        service_idmsvc - -> service_hbi: /api/inventory/v1/*
        service_idmsvc - database
    }
}

@enduml

PlantUML version 1.2022.5(Sat Apr 30 12:55:52 CEST 2022)
(LGPL source distribution)
Java Runtime: OpenJDK Runtime Environment
JVM: OpenJDK 64-Bit Server VM
Default Encoding: UTF-8
Language: en
Country: DK
--></g></svg>